<svg version="1.1" width="200px" height="2600px" baseProfile="full" xmlns="http://www.w3.org/2000/svg" xmlns:xlink="http://www.w3.org/1999/xlink" xmlns:ev="http://www.w3.org/2001/xml-events">
<g>
	<path fill="#aaa" d="M67.279,60.544c-2.461,0-4.756-0.601-6.885-1.8c-2.131-1.2-3.96-3.06-5.49-5.58s-2.731-5.745-3.6-9.675c-0.871-3.929-1.306-8.625-1.306-14.085c0-5.34,0.45-9.869,1.351-13.59c0.899-3.719,2.114-6.75,3.645-9.09s3.359-4.035,5.49-5.085c2.129-1.049,4.395-1.575,6.795-1.575c2.46,0,4.739,0.526,6.84,1.575c2.1,1.05,3.915,2.745,5.445,5.085s2.745,5.371,3.645,9.09c0.9,3.721,1.351,8.25,1.351,13.59c0,5.46-0.437,10.156-1.306,14.085c-0.87,3.93-2.069,7.155-3.6,9.675s-3.361,4.38-5.49,5.58C72.034,59.944,69.739,60.544,67.279,60.544z M67.279,58.564c2.64,0,4.935-0.72,6.885-2.16c1.949-1.44,3.556-3.45,4.815-6.03c1.26-2.579,2.189-5.609,2.79-9.09c0.599-3.479,0.899-7.259,0.899-11.34c0-3.96-0.285-7.635-0.854-11.025c-0.571-3.389-1.471-6.345-2.7-8.865c-1.23-2.52-2.821-4.484-4.77-5.895c-1.951-1.409-4.307-2.115-7.065-2.115c-2.761,0-5.116,0.706-7.065,2.115c-1.95,1.411-3.541,3.375-4.77,5.895c-1.23,2.52-2.131,5.476-2.7,8.865c-0.571,3.39-0.854,7.065-0.854,11.025c0,4.081,0.299,7.861,0.899,11.34c0.6,3.48,1.53,6.511,2.79,9.09c1.26,2.581,2.864,4.59,4.815,6.03C62.344,57.844,64.639,58.564,67.279,58.564z"/>
	<path fill="#aaa" d="M67.549,103.394h-0.18l-9.18,5.76l-0.811-1.62l10.08-6.48h1.98v58.5h-1.891V103.394z"/>
	<path fill="#aaa" d="M50.81,259.554v-1.44l4.77-5.31c4.141-4.14,7.709-7.875,10.71-11.205c3-3.33,5.49-6.419,7.47-9.27c1.98-2.849,3.435-5.58,4.365-8.19c0.93-2.61,1.396-5.265,1.396-7.965c0-1.679-0.195-3.36-0.585-5.04c-0.392-1.679-1.096-3.195-2.115-4.545c-1.021-1.35-2.371-2.444-4.05-3.285c-1.681-0.839-3.841-1.26-6.48-1.26c-1.381,0-2.686,0.166-3.915,0.495c-1.23,0.331-2.355,0.751-3.375,1.26c-1.021,0.51-1.935,1.05-2.745,1.62c-0.81,0.571-1.484,1.125-2.024,1.665l-1.17-1.26c1.739-1.679,3.719-3.06,5.939-4.14c2.22-1.08,4.771-1.62,7.65-1.62s5.265,0.511,7.155,1.53c1.89,1.021,3.404,2.311,4.545,3.87c1.139,1.561,1.935,3.271,2.385,5.13c0.45,1.86,0.675,3.631,0.675,5.31c0,3.001-0.495,5.881-1.485,8.64c-0.989,2.76-2.461,5.58-4.409,8.46c-1.951,2.88-4.396,5.94-7.335,9.18c-2.94,3.24-6.361,6.871-10.261,10.89l-4.14,4.41v0.18h29.43v1.89H50.81z"/>
	<path fill="#aaa" d="M52.159,355.144c1.02,0.781,2.595,1.545,4.725,2.295c2.13,0.751,4.575,1.125,7.336,1.125c3.179,0,5.789-0.509,7.829-1.53c2.039-1.02,3.63-2.295,4.771-3.825c1.139-1.53,1.92-3.164,2.34-4.905c0.419-1.74,0.63-3.33,0.63-4.77c-0.061-2.64-0.616-4.905-1.665-6.795c-1.05-1.89-2.43-3.434-4.14-4.635c-1.71-1.199-3.646-2.084-5.805-2.655c-2.16-0.569-4.381-0.855-6.66-0.855h-3.061v-1.89h3.33c1.739,0,3.54-0.239,5.4-0.72c1.858-0.479,3.539-1.245,5.04-2.295c1.499-1.049,2.729-2.399,3.689-4.05c0.959-1.649,1.44-3.645,1.44-5.985c0-1.56-0.211-3.029-0.63-4.41c-0.421-1.379-1.111-2.61-2.07-3.69c-0.96-1.08-2.19-1.935-3.689-2.565c-1.501-0.63-3.33-0.945-5.49-0.945s-4.186,0.405-6.075,1.215s-3.465,1.755-4.725,2.835l-0.9-1.89c1.139-0.959,2.729-1.89,4.77-2.79c2.039-0.9,4.32-1.35,6.841-1.35c2.579,0,4.754,0.391,6.524,1.17c1.77,0.78,3.195,1.8,4.275,3.06c1.08,1.26,1.858,2.686,2.34,4.275c0.479,1.59,0.72,3.195,0.72,4.815c0,3.24-0.841,6.09-2.52,8.55c-1.681,2.461-4.441,4.291-8.28,5.49v0.18c1.8,0.36,3.51,0.976,5.13,1.845c1.62,0.871,3.029,1.966,4.23,3.285c1.199,1.32,2.145,2.866,2.835,4.635c0.688,1.771,1.035,3.766,1.035,5.985c0,2.041-0.286,4.095-0.855,6.165c-0.571,2.07-1.561,3.915-2.97,5.535c-1.411,1.62-3.301,2.94-5.67,3.96c-2.371,1.02-5.326,1.53-8.865,1.53c-2.7,0-5.071-0.36-7.11-1.08c-2.04-0.72-3.6-1.47-4.68-2.25L52.159,355.144z"/>
	<path fill="#aaa" d="M75.109,459.554v-18H47.299v-1.35l29.431-39.15h0.27v38.61h9.181v1.89h-9.181v18H75.109z M75.109,439.664v-26.19c0-1.379,0-2.7,0-3.96c0-1.26,0.059-2.52,0.18-3.78l-0.27-0.09c-0.9,1.681-1.755,3.015-2.565,4.005c-0.81,0.99-1.545,1.966-2.205,2.925l-20.25,26.91v0.18H75.109z"/>
	<path fill="#aaa" d="M80.959,502.944h-21.42l-3.24,20.88c1.02-0.12,1.949-0.225,2.79-0.315c0.84-0.09,1.949-0.135,3.33-0.135c2.28,0,4.53,0.315,6.75,0.945c2.22,0.63,4.199,1.665,5.94,3.105c1.739,1.44,3.135,3.33,4.185,5.67s1.575,5.22,1.575,8.64c0,2.94-0.495,5.58-1.485,7.92c-0.989,2.341-2.295,4.32-3.914,5.94c-1.62,1.62-3.48,2.851-5.58,3.69c-2.102,0.839-4.291,1.26-6.57,1.26c-2.761,0-5.235-0.346-7.425-1.035c-2.191-0.689-3.825-1.454-4.905-2.295l0.72-2.07c1.261,0.961,2.895,1.771,4.905,2.43c2.01,0.661,4.215,0.99,6.615,0.99c2.279,0,4.379-0.419,6.3-1.26c1.92-0.84,3.585-1.994,4.995-3.465c1.409-1.47,2.504-3.24,3.285-5.311c0.778-2.069,1.17-4.304,1.17-6.705c0-4.859-1.381-8.833-4.141-11.924c-2.76-3.09-6.99-4.635-12.689-4.635c-1.741,0-3.285,0.09-4.635,0.27c-1.351,0.18-2.506,0.331-3.466,0.45l3.78-24.93h23.13V502.944z"/>
	<path fill="#aaa" d="M67.64,621.844c2.699,0,5.099,0.466,7.199,1.395c2.1,0.932,3.87,2.236,5.311,3.915c1.439,1.681,2.534,3.661,3.285,5.94c0.749,2.281,1.125,4.74,1.125,7.38c0,2.461-0.36,4.891-1.08,7.29c-0.721,2.4-1.786,4.545-3.195,6.435c-1.41,1.891-3.181,3.421-5.31,4.591c-2.131,1.17-4.605,1.755-7.426,1.755c-2.34,0-4.575-0.495-6.704-1.485c-2.131-0.99-4.006-2.505-5.625-4.545c-1.62-2.039-2.911-4.574-3.87-7.604c-0.961-3.029-1.44-6.555-1.44-10.575c0-5.4,0.689-10.274,2.07-14.625c1.379-4.35,3.344-8.069,5.895-11.16c2.55-3.09,5.64-5.535,9.271-7.335c3.629-1.8,7.725-2.85,12.285-3.15l0.09,1.891c-3.661,0.12-7.097,0.841-10.306,2.159c-3.21,1.321-6.029,3.211-8.46,5.671c-2.43,2.461-4.409,5.444-5.939,8.954c-1.53,3.511-2.476,7.516-2.835,12.016h0.18c1.319-2.34,3.285-4.41,5.896-6.21C60.664,622.745,63.859,621.844,67.64,621.844z M67.999,658.654c2.1,0,4.05-0.419,5.851-1.26c1.8-0.84,3.359-2.024,4.68-3.555c1.319-1.53,2.34-3.42,3.06-5.67c0.721-2.25,1.08-4.755,1.08-7.516c0-2.88-0.391-5.384-1.17-7.515c-0.78-2.129-1.86-3.884-3.24-5.265c-1.381-1.38-3-2.415-4.859-3.105c-1.86-0.688-3.841-1.035-5.94-1.035c-3.06,0-5.881,0.796-8.46,2.386c-2.58,1.59-4.65,3.824-6.21,6.704c-0.24,0.481-0.465,1.066-0.675,1.756c-0.211,0.69-0.315,1.336-0.315,1.935c0,3.301,0.36,6.315,1.08,9.045c0.721,2.731,1.77,5.071,3.15,7.021c1.38,1.95,3.06,3.45,5.04,4.5c1.979,1.05,4.26,1.574,6.84,1.574H67.999z"/>
	<path fill="#aaa" d="M84.02,701.054v1.62l-26.37,56.88h-1.891l26.101-56.52v-0.181H52.339v-1.8H84.02z"/>
	<path fill="#aaa" d="M68.043,800.064c2.153,0,4.097,0.376,5.832,1.125c1.733,0.751,3.214,1.755,4.44,3.016c1.227,1.26,2.153,2.715,2.781,4.364c0.628,1.651,0.942,3.375,0.942,5.176c0,1.26-0.166,2.551-0.496,3.869c-0.331,1.321-0.901,2.61-1.713,3.87c-0.812,1.261-1.895,2.461-3.247,3.601c-1.353,1.141-3.082,2.19-5.187,3.149v0.36c4.296,1.8,7.459,3.931,9.488,6.39c2.029,2.461,3.045,5.58,3.045,9.36c0,2.761-0.463,5.161-1.389,7.2c-0.925,2.04-2.178,3.721-3.759,5.04c-1.582,1.32-3.388,2.311-5.417,2.97s-4.117,0.99-6.266,0.99c-2.388,0-4.611-0.36-6.67-1.08s-3.835-1.755-5.327-3.105c-1.492-1.35-2.655-2.97-3.49-4.859c-0.835-1.891-1.253-3.975-1.253-6.255c0-4.141,1.118-7.59,3.356-10.351c2.239-2.759,5.268-4.919,9.087-6.479v-0.36c-3.577-1.56-6.14-3.51-7.688-5.85c-1.55-2.341-2.325-4.86-2.325-7.561c0-2.34,0.389-4.41,1.166-6.21s1.854-3.33,3.23-4.59c1.375-1.26,2.976-2.205,4.801-2.835c1.823-0.63,3.812-0.945,5.967-0.945H68.043z M67.055,858.564c4.665,0,8.358-1.229,11.081-3.689c2.723-2.46,4.084-5.761,4.084-9.9c0-4.5-1.377-7.965-4.128-10.395c-2.752-2.431-6.76-4.334-12.024-5.716c-4.486,1.382-7.912,3.48-10.274,6.301s-3.544,5.971-3.544,9.449c-0.061,1.861,0.224,3.646,0.853,5.355c0.627,1.71,1.569,3.195,2.826,4.455c1.256,1.26,2.812,2.266,4.666,3.015c1.854,0.751,3.979,1.125,6.372,1.125H67.055z M67.549,802.044c-2.04,0-3.855,0.314-5.444,0.944c-1.591,0.631-2.94,1.501-4.05,2.61c-1.111,1.111-1.951,2.385-2.521,3.825c-0.571,1.439-0.854,2.97-0.854,4.59c-0.061,3.901,1.17,6.93,3.689,9.09c2.521,2.16,5.88,3.721,10.08,4.681c3.42-1.319,6.224-3.074,8.415-5.266c2.189-2.189,3.285-5.085,3.285-8.685c0-1.44-0.226-2.865-0.675-4.275c-0.45-1.409-1.186-2.669-2.205-3.78c-1.021-1.109-2.311-2.009-3.87-2.699c-1.562-0.689-3.48-1.035-5.76-1.035H67.549z"/>
	<path fill="#aaa" d="M55.489,958.654c0.239,0.061,0.39,0.076,0.45,0.045c0.059-0.029,0.239-0.045,0.54-0.045c2.938,0,5.864-0.509,8.774-1.529c2.91-1.02,5.58-2.685,8.011-4.995c2.43-2.31,4.5-5.295,6.21-8.955c1.71-3.659,2.835-8.13,3.375-13.41h-0.096c-1.926,2.88-4.212,4.966-6.858,6.255c-2.648,1.291-5.596,1.936-8.844,1.936c-2.707,0-5.068-0.51-7.084-1.53c-2.017-1.02-3.686-2.354-5.009-4.005c-1.323-1.649-2.301-3.524-2.932-5.625c-0.633-2.1-0.948-4.23-0.948-6.391c0-2.699,0.376-5.278,1.128-7.739c0.751-2.46,1.864-4.62,3.339-6.48c1.474-1.859,3.309-3.344,5.505-4.455c2.195-1.109,4.707-1.665,7.535-1.665c2.165,0,4.241,0.495,6.227,1.485s3.716,2.52,5.189,4.59s2.646,4.68,3.519,7.83c0.871,3.15,1.309,6.855,1.309,11.115c0,6.3-0.841,11.7-2.52,16.2c-1.681,4.5-3.856,8.176-6.525,11.024c-2.67,2.851-5.715,4.937-9.135,6.255c-3.42,1.319-6.93,1.98-10.53,1.98h-0.63V958.654z M67.686,902.044c-2.154,0-4.129,0.45-5.923,1.35c-1.795,0.9-3.336,2.16-4.621,3.78c-1.287,1.62-2.304,3.555-3.052,5.805s-1.12,4.726-1.12,7.425c0,2.461,0.358,4.65,1.075,6.57c0.718,1.921,1.704,3.555,2.962,4.905c1.256,1.35,2.736,2.371,4.44,3.06c1.705,0.69,3.575,1.035,5.609,1.035c3.409,0,6.43-0.795,9.062-2.385c2.632-1.589,4.666-3.646,6.103-6.165c0.179-0.3,0.344-0.645,0.492-1.035c0.149-0.39,0.226-0.795,0.226-1.215c-0.061-7.14-1.348-12.78-3.859-16.92c-2.513-4.141-6.281-6.21-11.306-6.21H67.686z"/>
	<path fill="#aaa" d="M35.06,1003.394h-0.18l-9.18,5.76l-0.811-1.619l10.08-6.48h1.98v58.5H35.06V1003.394z"/>
	<path fill="#aaa" d="M67.28,1060.544c-2.461,0-4.756-0.601-6.885-1.8c-2.131-1.2-3.96-3.061-5.49-5.58c-1.53-2.521-2.731-5.745-3.6-9.676c-0.871-3.929-1.306-8.624-1.306-14.085c0-5.339,0.45-9.869,1.351-13.59c0.899-3.72,2.114-6.75,3.645-9.09s3.359-4.034,5.49-5.085c2.129-1.049,4.395-1.575,6.795-1.575c2.46,0,4.739,0.526,6.84,1.575c2.1,1.051,3.915,2.745,5.445,5.085s2.745,5.37,3.645,9.09c0.9,3.721,1.351,8.251,1.351,13.59c0,5.461-0.437,10.156-1.306,14.085c-0.87,3.931-2.069,7.155-3.6,9.676c-1.53,2.52-3.361,4.38-5.49,5.58C72.035,1059.944,69.74,1060.544,67.28,1060.544z M67.28,1058.564c2.64,0,4.935-0.72,6.885-2.16c1.949-1.439,3.556-3.449,4.815-6.029c1.26-2.579,2.189-5.609,2.79-9.09c0.599-3.479,0.899-7.26,0.899-11.341c0-3.96-0.285-7.634-0.854-11.024c-0.571-3.39-1.471-6.346-2.7-8.865c-1.23-2.52-2.821-4.484-4.77-5.895c-1.951-1.409-4.307-2.115-7.065-2.115c-2.761,0-5.116,0.706-7.065,2.115c-1.95,1.41-3.541,3.375-4.77,5.895c-1.23,2.52-2.131,5.476-2.7,8.865c-0.571,3.391-0.854,7.064-0.854,11.024c0,4.081,0.299,7.861,0.899,11.341c0.6,3.48,1.53,6.511,2.79,9.09c1.26,2.58,2.864,4.59,4.815,6.029C62.345,1057.844,64.64,1058.564,67.28,1058.564z"/>
	<path fill="#aaa" d="M36.859,1103.394h-0.18l-9.18,5.76l-0.811-1.619l10.08-6.48h1.98v58.5h-1.891V1103.394z"/>
	<path fill="#aaa" d="M67.55,1103.394h-0.18l-9.18,5.76l-0.811-1.619l10.08-6.48h1.98v58.5H67.55V1103.394z"/>
	<path fill="#aaa" d="M35.06,1203.395h-0.18l-9.18,5.76l-0.811-1.619l10.08-6.48h1.98v58.5H35.06V1203.395z"/>
	<path fill="#aaa" d="M50.811,1259.555v-1.441l4.77-5.309c4.141-4.141,7.709-7.875,10.71-11.205c3-3.33,5.49-6.42,7.47-9.27c1.98-2.85,3.435-5.58,4.365-8.191c0.93-2.609,1.396-5.264,1.396-7.965c0-1.678-0.195-3.359-0.585-5.039c-0.392-1.68-1.096-3.195-2.115-4.545c-1.021-1.352-2.371-2.445-4.05-3.285c-1.681-0.84-3.841-1.26-6.48-1.26c-1.381,0-2.686,0.166-3.915,0.494c-1.23,0.33-2.355,0.752-3.375,1.26c-1.021,0.512-1.935,1.051-2.745,1.621c-0.81,0.57-1.484,1.125-2.024,1.664l-1.17-1.26c1.739-1.68,3.719-3.061,5.939-4.141c2.22-1.08,4.771-1.619,7.65-1.619s5.265,0.51,7.155,1.529c1.89,1.021,3.404,2.311,4.545,3.871c1.139,1.561,1.935,3.27,2.385,5.129c0.45,1.861,0.675,3.631,0.675,5.311c0,3-0.495,5.881-1.485,8.641c-0.989,2.76-2.461,5.58-4.409,8.459c-1.951,2.881-4.396,5.939-7.335,9.18c-2.94,3.24-6.361,6.871-10.261,10.891l-4.14,4.41v0.18h29.43v1.891H50.811z"/>
	<path fill="#aaa" d="M35.06,1303.395h-0.18l-9.18,5.76l-0.811-1.619l10.08-6.48h1.98v58.5H35.06V1303.395z"/>
	<path fill="#aaa" d="M52.16,1355.145c1.02,0.779,2.595,1.545,4.725,2.295s4.575,1.125,7.336,1.125c3.179,0,5.789-0.51,7.829-1.529c2.039-1.02,3.63-2.297,4.771-3.826c1.139-1.529,1.92-3.164,2.34-4.904c0.419-1.74,0.63-3.33,0.63-4.77c-0.061-2.641-0.616-4.906-1.665-6.797c-1.05-1.889-2.43-3.434-4.14-4.635c-1.71-1.199-3.646-2.084-5.805-2.654c-2.16-0.57-4.381-0.855-6.66-0.855H58.46v-1.889h3.33c1.739,0,3.54-0.24,5.4-0.721c1.858-0.48,3.539-1.244,5.04-2.295c1.499-1.049,2.729-2.398,3.689-4.051c0.959-1.648,1.44-3.645,1.44-5.984c0-1.561-0.211-3.029-0.63-4.41c-0.421-1.379-1.111-2.609-2.07-3.689c-0.96-1.08-2.19-1.936-3.689-2.566c-1.501-0.629-3.33-0.943-5.49-0.943s-4.186,0.404-6.075,1.215c-1.89,0.809-3.465,1.754-4.725,2.834l-0.9-1.889c1.139-0.959,2.729-1.891,4.77-2.791c2.039-0.9,4.32-1.35,6.841-1.35c2.579,0,4.754,0.391,6.524,1.17c1.77,0.781,3.195,1.801,4.275,3.061s1.858,2.686,2.34,4.273c0.479,1.592,0.72,3.195,0.72,4.816c0,3.24-0.841,6.09-2.52,8.549c-1.681,2.461-4.441,4.291-8.28,5.49v0.18c1.8,0.361,3.51,0.977,5.13,1.846c1.62,0.871,3.029,1.967,4.23,3.285c1.199,1.32,2.145,2.865,2.835,4.635c0.688,1.771,1.035,3.766,1.035,5.984c0,2.041-0.286,4.096-0.855,6.166c-0.571,2.07-1.561,3.914-2.97,5.535c-1.411,1.619-3.301,2.939-5.67,3.959c-2.371,1.02-5.326,1.531-8.865,1.531c-2.7,0-5.071-0.361-7.11-1.08c-2.04-0.721-3.6-1.471-4.68-2.25L52.16,1355.145z"/>
	<path fill="#aaa" d="M35.06,1403.395h-0.18l-9.18,5.76l-0.811-1.619l10.08-6.48h1.98v58.5H35.06V1403.395z"/>
	<path fill="#aaa" d="M75.11,1459.555v-18H47.3v-1.35l29.431-39.15H77v38.609h9.181v1.891H77v18H75.11z M75.11,1439.664v-26.189c0-1.381,0-2.701,0-3.961s0.059-2.52,0.18-3.779l-0.27-0.09c-0.9,1.68-1.755,3.016-2.565,4.004c-0.81,0.99-1.545,1.967-2.205,2.926L50,1439.484v0.18H75.11z"/>
	<path fill="#aaa" d="M35.06,1503.395h-0.18l-9.18,5.76l-0.811-1.619l10.08-6.48h1.98v58.5H35.06V1503.395z"/>
	<path fill="#aaa" d="M80.96,1502.943H59.54l-3.24,20.881c1.02-0.119,1.949-0.225,2.79-0.314c0.84-0.09,1.949-0.135,3.33-0.135c2.28,0,4.53,0.314,6.75,0.943c2.22,0.631,4.199,1.666,5.94,3.105c1.739,1.439,3.135,3.33,4.185,5.67s1.575,5.221,1.575,8.641c0,2.939-0.495,5.58-1.485,7.92c-0.989,2.34-2.295,4.32-3.914,5.939c-1.62,1.621-3.48,2.852-5.58,3.691c-2.102,0.838-4.291,1.26-6.57,1.26c-2.761,0-5.235-0.346-7.425-1.035c-2.191-0.689-3.825-1.455-4.905-2.295l0.72-2.07c1.261,0.961,2.895,1.77,4.905,2.43c2.01,0.66,4.215,0.99,6.615,0.99c2.279,0,4.379-0.42,6.3-1.26c1.92-0.84,3.585-1.994,4.995-3.465c1.409-1.471,2.504-3.24,3.285-5.311c0.778-2.07,1.17-4.305,1.17-6.705c0-4.859-1.381-8.834-4.141-11.926c-2.76-3.088-6.99-4.635-12.689-4.635c-1.741,0-3.285,0.09-4.635,0.271c-1.351,0.18-2.506,0.33-3.466,0.449l3.78-24.93h23.13V1502.943z"/>
	<path fill="#aaa" d="M35.06,1603.395h-0.18l-9.18,5.76l-0.811-1.619l10.08-6.48h1.98v58.5H35.06V1603.395z"/>
	<path fill="#aaa" d="M67.641,1621.844c2.699,0,5.099,0.467,7.199,1.395c2.1,0.932,3.87,2.236,5.311,3.916c1.439,1.68,2.534,3.66,3.285,5.939c0.749,2.281,1.125,4.74,1.125,7.381c0,2.461-0.36,4.891-1.08,7.289c-0.721,2.4-1.786,4.545-3.195,6.436c-1.41,1.891-3.181,3.42-5.31,4.59c-2.131,1.17-4.605,1.756-7.426,1.756c-2.34,0-4.575-0.496-6.704-1.486c-2.131-0.99-4.006-2.504-5.625-4.545c-1.62-2.039-2.911-4.574-3.87-7.604c-0.961-3.029-1.44-6.555-1.44-10.576c0-5.4,0.689-10.273,2.07-14.625c1.379-4.35,3.344-8.068,5.895-11.16c2.55-3.09,5.64-5.535,9.271-7.334c3.629-1.801,7.725-2.85,12.285-3.15l0.09,1.891c-3.661,0.119-7.097,0.84-10.306,2.158c-3.21,1.322-6.029,3.211-8.46,5.672c-2.43,2.461-4.409,5.443-5.939,8.953c-1.53,3.512-2.476,7.516-2.835,12.016h0.18c1.319-2.34,3.285-4.41,5.896-6.209C60.665,1622.744,63.86,1621.844,67.641,1621.844z M68,1658.654c2.1,0,4.05-0.42,5.851-1.26c1.8-0.84,3.359-2.025,4.68-3.555c1.319-1.531,2.34-3.42,3.06-5.67c0.721-2.25,1.08-4.756,1.08-7.516c0-2.881-0.391-5.385-1.17-7.516c-0.78-2.129-1.86-3.883-3.24-5.264c-1.381-1.381-3-2.416-4.859-3.105c-1.86-0.689-3.841-1.035-5.94-1.035c-3.06,0-5.881,0.795-8.46,2.385c-2.58,1.59-4.65,3.824-6.21,6.705c-0.24,0.48-0.465,1.066-0.675,1.756c-0.211,0.689-0.315,1.336-0.315,1.934c0,3.301,0.36,6.316,1.08,9.045c0.721,2.732,1.77,5.072,3.15,7.021c1.38,1.949,3.06,3.449,5.04,4.5c1.979,1.049,4.26,1.574,6.84,1.574H68z"/>
	<path fill="#aaa" d="M35.06,1703.395h-0.18l-9.18,5.76l-0.811-1.619l10.08-6.48h1.98v58.5H35.06V1703.395z"/>
	<path fill="#aaa" d="M84.021,1701.055v1.619l-26.37,56.881H55.76l26.101-56.52v-0.182H52.34v-1.799H84.021z"/>
	<path fill="#aaa" d="M35.06,1803.395h-0.18l-9.18,5.76l-0.811-1.619l10.08-6.48h1.98v58.5H35.06V1803.395z"/>
	<path fill="#aaa" d="M68.044,1800.064c2.153,0,4.097,0.375,5.832,1.125c1.733,0.75,3.214,1.754,4.44,3.016c1.227,1.26,2.153,2.715,2.781,4.363c0.628,1.652,0.942,3.375,0.942,5.176c0,1.26-0.166,2.551-0.496,3.869c-0.331,1.322-0.901,2.611-1.713,3.871c-0.812,1.26-1.895,2.461-3.247,3.6c-1.353,1.141-3.082,2.191-5.187,3.15v0.359c4.296,1.801,7.459,3.932,9.488,6.391c2.029,2.461,3.045,5.58,3.045,9.359c0,2.762-0.463,5.162-1.389,7.201c-0.925,2.039-2.178,3.721-3.759,5.039c-1.582,1.32-3.388,2.311-5.417,2.971c-2.029,0.658-4.117,0.99-6.266,0.99c-2.388,0-4.611-0.361-6.67-1.08c-2.059-0.721-3.835-1.756-5.327-3.105s-2.655-2.971-3.49-4.859c-0.835-1.891-1.253-3.975-1.253-6.256c0-4.141,1.118-7.59,3.356-10.35c2.239-2.76,5.268-4.92,9.087-6.48v-0.359c-3.577-1.561-6.14-3.51-7.688-5.85c-1.55-2.342-2.325-4.861-2.325-7.561c0-2.34,0.389-4.41,1.166-6.211c0.777-1.799,1.854-3.33,3.23-4.59c1.375-1.26,2.976-2.205,4.801-2.834c1.823-0.631,3.812-0.945,5.967-0.945H68.044z M67.056,1858.564c4.665,0,8.358-1.229,11.081-3.689s4.084-5.762,4.084-9.9c0-4.5-1.377-7.965-4.128-10.395c-2.752-2.432-6.76-4.334-12.024-5.717c-4.486,1.383-7.912,3.48-10.274,6.301s-3.544,5.971-3.544,9.449c-0.061,1.861,0.224,3.646,0.853,5.355c0.627,1.711,1.569,3.195,2.826,4.455c1.256,1.26,2.812,2.266,4.666,3.016c1.854,0.75,3.979,1.125,6.372,1.125H67.056z M67.55,1802.045c-2.04,0-3.855,0.314-5.444,0.943c-1.591,0.631-2.94,1.502-4.05,2.611c-1.111,1.111-1.951,2.385-2.521,3.824c-0.571,1.439-0.854,2.971-0.854,4.59c-0.061,3.902,1.17,6.93,3.689,9.09c2.521,2.16,5.88,3.721,10.08,4.682c3.42-1.32,6.224-3.074,8.415-5.266c2.189-2.189,3.285-5.086,3.285-8.686c0-1.439-0.226-2.865-0.675-4.275c-0.45-1.408-1.186-2.668-2.205-3.779c-1.021-1.109-2.311-2.01-3.87-2.699c-1.562-0.689-3.48-1.035-5.76-1.035H67.55z"/>
	<path fill="#aaa" d="M35.06,1903.395h-0.18l-9.18,5.76l-0.811-1.619l10.08-6.48h1.98v58.5H35.06V1903.395z"/>
	<path fill="#aaa" d="M55.49,1958.654c0.239,0.061,0.39,0.076,0.45,0.045c0.059-0.029,0.239-0.045,0.54-0.045c2.938,0,5.864-0.51,8.774-1.529s5.58-2.686,8.011-4.996c2.43-2.309,4.5-5.295,6.21-8.955c1.71-3.658,2.835-8.129,3.375-13.41h-0.096c-1.926,2.881-4.212,4.967-6.858,6.256c-2.648,1.291-5.596,1.936-8.844,1.936c-2.707,0-5.068-0.51-7.084-1.531c-2.017-1.02-3.686-2.354-5.009-4.004s-2.301-3.525-2.932-5.625c-0.633-2.1-0.948-4.23-0.948-6.391c0-2.699,0.376-5.279,1.128-7.74c0.751-2.459,1.864-4.619,3.339-6.48c1.474-1.859,3.309-3.344,5.505-4.455c2.195-1.109,4.707-1.664,7.535-1.664c2.165,0,4.241,0.494,6.227,1.484s3.716,2.52,5.189,4.59s2.646,4.68,3.519,7.83c0.871,3.15,1.309,6.855,1.309,11.115c0,6.301-0.841,11.701-2.52,16.201c-1.681,4.5-3.856,8.176-6.525,11.023c-2.67,2.852-5.715,4.938-9.135,6.256s-6.93,1.98-10.53,1.98h-0.63V1958.654z M67.687,1902.045c-2.154,0-4.129,0.449-5.923,1.35c-1.795,0.9-3.336,2.16-4.621,3.779c-1.287,1.621-2.304,3.555-3.052,5.805s-1.12,4.727-1.12,7.426c0,2.461,0.358,4.65,1.075,6.57c0.718,1.92,1.704,3.555,2.962,4.904c1.256,1.35,2.736,2.371,4.44,3.061c1.705,0.689,3.575,1.035,5.609,1.035c3.409,0,6.43-0.795,9.062-2.385c2.632-1.59,4.666-3.646,6.103-6.166c0.179-0.299,0.344-0.645,0.492-1.035c0.149-0.389,0.226-0.795,0.226-1.215c-0.061-7.139-1.348-12.779-3.859-16.92c-2.513-4.141-6.281-6.209-11.306-6.209H67.687z"/>
	<path fill="#aaa" d="M12.919,2059.555v-1.441l4.771-5.309c4.141-4.141,7.709-7.875,10.71-11.205c3-3.33,5.49-6.42,7.47-9.27c1.98-2.85,3.435-5.58,4.365-8.191c0.93-2.609,1.396-5.264,1.396-7.965c0-1.678-0.195-3.359-0.585-5.039c-0.392-1.68-1.096-3.195-2.115-4.545c-1.021-1.352-2.371-2.445-4.05-3.285c-1.681-0.84-3.841-1.26-6.48-1.26c-1.381,0-2.686,0.166-3.915,0.494c-1.23,0.33-2.355,0.752-3.375,1.26c-1.021,0.512-1.935,1.051-2.745,1.621c-0.81,0.57-1.484,1.125-2.024,1.664l-1.17-1.26c1.739-1.68,3.719-3.061,5.939-4.141c2.22-1.08,4.771-1.619,7.65-1.619s5.265,0.51,7.155,1.529c1.89,1.021,3.404,2.311,4.545,3.871c1.139,1.561,1.935,3.27,2.385,5.129c0.45,1.861,0.675,3.631,0.675,5.311c0,3-0.495,5.881-1.485,8.641c-0.989,2.76-2.461,5.58-4.409,8.459c-1.951,2.881-4.396,5.939-7.335,9.18c-2.94,3.24-6.361,6.871-10.261,10.891l-4.14,4.41v0.18h29.43v1.891H12.919z"/>
	<path fill="#aaa" d="M67.28,2060.545c-2.461,0-4.756-0.602-6.885-1.801c-2.131-1.199-3.96-3.061-5.49-5.58s-2.731-5.744-3.6-9.676c-0.871-3.928-1.306-8.623-1.306-14.084c0-5.34,0.45-9.869,1.351-13.59c0.899-3.721,2.114-6.75,3.645-9.09s3.359-4.035,5.49-5.086c2.129-1.049,4.395-1.574,6.795-1.574c2.46,0,4.739,0.525,6.84,1.574c2.1,1.051,3.915,2.746,5.445,5.086s2.745,5.369,3.645,9.09c0.9,3.721,1.351,8.25,1.351,13.59c0,5.461-0.437,10.156-1.306,14.084c-0.87,3.932-2.069,7.156-3.6,9.676s-3.361,4.381-5.49,5.58C72.035,2059.943,69.74,2060.545,67.28,2060.545z M67.28,2058.564c2.64,0,4.935-0.721,6.885-2.16c1.949-1.439,3.556-3.449,4.815-6.029s2.189-5.609,2.79-9.09c0.599-3.48,0.899-7.26,0.899-11.342c0-3.959-0.285-7.633-0.854-11.023c-0.571-3.391-1.471-6.346-2.7-8.865c-1.23-2.52-2.821-4.484-4.77-5.895c-1.951-1.41-4.307-2.115-7.065-2.115c-2.761,0-5.116,0.705-7.065,2.115c-1.95,1.41-3.541,3.375-4.77,5.895c-1.23,2.52-2.131,5.475-2.7,8.865c-0.571,3.391-0.854,7.064-0.854,11.023c0,4.082,0.299,7.861,0.899,11.342c0.6,3.48,1.53,6.51,2.79,9.09s2.864,4.59,4.815,6.029C62.345,2057.844,64.64,2058.564,67.28,2058.564z"/>
	<path fill="#aaa" d="M12.919,2159.555v-1.441l4.771-5.309c4.141-4.141,7.709-7.875,10.71-11.205c3-3.33,5.49-6.42,7.47-9.27c1.98-2.85,3.435-5.58,4.365-8.191c0.93-2.609,1.396-5.264,1.396-7.965c0-1.678-0.195-3.359-0.585-5.039c-0.392-1.68-1.096-3.195-2.115-4.545c-1.021-1.352-2.371-2.445-4.05-3.285c-1.681-0.84-3.841-1.26-6.48-1.26c-1.381,0-2.686,0.166-3.915,0.494c-1.23,0.33-2.355,0.752-3.375,1.26c-1.021,0.512-1.935,1.051-2.745,1.621c-0.81,0.57-1.484,1.125-2.024,1.664l-1.17-1.26c1.739-1.68,3.719-3.061,5.939-4.141c2.22-1.08,4.771-1.619,7.65-1.619s5.265,0.51,7.155,1.529c1.89,1.021,3.404,2.311,4.545,3.871c1.139,1.561,1.935,3.27,2.385,5.129c0.45,1.861,0.675,3.631,0.675,5.311c0,3-0.495,5.881-1.485,8.641c-0.989,2.76-2.461,5.58-4.409,8.459c-1.951,2.881-4.396,5.939-7.335,9.18c-2.94,3.24-6.361,6.871-10.261,10.891l-4.14,4.41v0.18h29.43v1.891H12.919z"/>
	<path fill="#aaa" d="M67.55,2103.395h-0.18l-9.18,5.76l-0.811-1.619l10.08-6.48h1.98v58.5H67.55V2103.395z"/>
	<path fill="#aaa" d="M12.919,2259.555v-1.441l4.771-5.309c4.141-4.141,7.709-7.875,10.71-11.205c3-3.33,5.49-6.42,7.47-9.27c1.98-2.85,3.435-5.58,4.365-8.191c0.93-2.609,1.396-5.264,1.396-7.965c0-1.678-0.195-3.359-0.585-5.039c-0.392-1.68-1.096-3.195-2.115-4.545c-1.021-1.352-2.371-2.445-4.05-3.285c-1.681-0.84-3.841-1.26-6.48-1.26c-1.381,0-2.686,0.166-3.915,0.494c-1.23,0.33-2.355,0.752-3.375,1.26c-1.021,0.512-1.935,1.051-2.745,1.621c-0.81,0.57-1.484,1.125-2.024,1.664l-1.17-1.26c1.739-1.68,3.719-3.061,5.939-4.141c2.22-1.08,4.771-1.619,7.65-1.619s5.265,0.51,7.155,1.529c1.89,1.021,3.404,2.311,4.545,3.871c1.139,1.561,1.935,3.27,2.385,5.129c0.45,1.861,0.675,3.631,0.675,5.311c0,3-0.495,5.881-1.485,8.641c-0.989,2.76-2.461,5.58-4.409,8.459c-1.951,2.881-4.396,5.939-7.335,9.18c-2.94,3.24-6.361,6.871-10.261,10.891l-4.14,4.41v0.18h29.43v1.891H12.919z"/>
	<path fill="#aaa" d="M50.811,2259.555v-1.441l4.77-5.309c4.141-4.141,7.709-7.875,10.71-11.205c3-3.33,5.49-6.42,7.47-9.27c1.98-2.85,3.435-5.58,4.365-8.191c0.93-2.609,1.396-5.264,1.396-7.965c0-1.678-0.195-3.359-0.585-5.039c-0.392-1.68-1.096-3.195-2.115-4.545c-1.021-1.352-2.371-2.445-4.05-3.285c-1.681-0.84-3.841-1.26-6.48-1.26c-1.381,0-2.686,0.166-3.915,0.494c-1.23,0.33-2.355,0.752-3.375,1.26c-1.021,0.512-1.935,1.051-2.745,1.621c-0.81,0.57-1.484,1.125-2.024,1.664l-1.17-1.26c1.739-1.68,3.719-3.061,5.939-4.141c2.22-1.08,4.771-1.619,7.65-1.619s5.265,0.51,7.155,1.529c1.89,1.021,3.404,2.311,4.545,3.871c1.139,1.561,1.935,3.27,2.385,5.129c0.45,1.861,0.675,3.631,0.675,5.311c0,3-0.495,5.881-1.485,8.641c-0.989,2.76-2.461,5.58-4.409,8.459c-1.951,2.881-4.396,5.939-7.335,9.18c-2.94,3.24-6.361,6.871-10.261,10.891l-4.14,4.41v0.18h29.43v1.891H50.811z"/>
	<path fill="#aaa" d="M12.919,2359.555v-1.441l4.771-5.309c4.141-4.141,7.709-7.875,10.71-11.205c3-3.33,5.49-6.42,7.47-9.27c1.98-2.85,3.435-5.58,4.365-8.191c0.93-2.609,1.396-5.264,1.396-7.965c0-1.678-0.195-3.359-0.585-5.039c-0.392-1.68-1.096-3.195-2.115-4.545c-1.021-1.352-2.371-2.445-4.05-3.285c-1.681-0.84-3.841-1.26-6.48-1.26c-1.381,0-2.686,0.166-3.915,0.494c-1.23,0.33-2.355,0.752-3.375,1.26c-1.021,0.512-1.935,1.051-2.745,1.621c-0.81,0.57-1.484,1.125-2.024,1.664l-1.17-1.26c1.739-1.68,3.719-3.061,5.939-4.141c2.22-1.08,4.771-1.619,7.65-1.619s5.265,0.51,7.155,1.529c1.89,1.021,3.404,2.311,4.545,3.871c1.139,1.561,1.935,3.27,2.385,5.129c0.45,1.861,0.675,3.631,0.675,5.311c0,3-0.495,5.881-1.485,8.641c-0.989,2.76-2.461,5.58-4.409,8.459c-1.951,2.881-4.396,5.939-7.335,9.18c-2.94,3.24-6.361,6.871-10.261,10.891l-4.14,4.41v0.18h29.43v1.891H12.919z"/>
	<path fill="#aaa" d="M52.16,2355.145c1.02,0.779,2.595,1.545,4.725,2.295s4.575,1.125,7.336,1.125c3.179,0,5.789-0.51,7.829-1.529c2.039-1.02,3.63-2.297,4.771-3.826c1.139-1.529,1.92-3.164,2.34-4.904c0.419-1.74,0.63-3.33,0.63-4.77c-0.061-2.641-0.616-4.906-1.665-6.797c-1.05-1.889-2.43-3.434-4.14-4.635c-1.71-1.199-3.646-2.084-5.805-2.654c-2.16-0.57-4.381-0.855-6.66-0.855H58.46v-1.889h3.33c1.739,0,3.54-0.24,5.4-0.721c1.858-0.48,3.539-1.244,5.04-2.295c1.499-1.049,2.729-2.398,3.689-4.051c0.959-1.648,1.44-3.645,1.44-5.984c0-1.561-0.211-3.029-0.63-4.41c-0.421-1.379-1.111-2.609-2.07-3.689c-0.96-1.08-2.19-1.936-3.689-2.566c-1.501-0.629-3.33-0.943-5.49-0.943s-4.186,0.404-6.075,1.215c-1.89,0.809-3.465,1.754-4.725,2.834l-0.9-1.889c1.139-0.959,2.729-1.891,4.77-2.791c2.039-0.9,4.32-1.35,6.841-1.35c2.579,0,4.754,0.391,6.524,1.17c1.77,0.781,3.195,1.801,4.275,3.061s1.858,2.686,2.34,4.273c0.479,1.592,0.72,3.195,0.72,4.816c0,3.24-0.841,6.09-2.52,8.549c-1.681,2.461-4.441,4.291-8.28,5.49v0.18c1.8,0.361,3.51,0.977,5.13,1.846c1.62,0.871,3.029,1.967,4.23,3.285c1.199,1.32,2.145,2.865,2.835,4.635c0.688,1.771,1.035,3.766,1.035,5.984c0,2.041-0.286,4.096-0.855,6.166c-0.571,2.07-1.561,3.914-2.97,5.535c-1.411,1.619-3.301,2.939-5.67,3.959c-2.371,1.02-5.326,1.531-8.865,1.531c-2.7,0-5.071-0.361-7.11-1.08c-2.04-0.721-3.6-1.471-4.68-2.25L52.16,2355.145z"/>
	<path fill="#aaa" d="M12.919,2459.555v-1.441l4.771-5.309c4.141-4.141,7.709-7.875,10.71-11.205c3-3.33,5.49-6.42,7.47-9.27c1.98-2.85,3.435-5.58,4.365-8.191c0.93-2.609,1.396-5.264,1.396-7.965c0-1.678-0.195-3.359-0.585-5.039c-0.392-1.68-1.096-3.195-2.115-4.545c-1.021-1.352-2.371-2.445-4.05-3.285c-1.681-0.84-3.841-1.26-6.48-1.26c-1.381,0-2.686,0.166-3.915,0.494c-1.23,0.33-2.355,0.752-3.375,1.26c-1.021,0.512-1.935,1.051-2.745,1.621c-0.81,0.57-1.484,1.125-2.024,1.664l-1.17-1.26c1.739-1.68,3.719-3.061,5.939-4.141c2.22-1.08,4.771-1.619,7.65-1.619s5.265,0.51,7.155,1.529c1.89,1.021,3.404,2.311,4.545,3.871c1.139,1.561,1.935,3.27,2.385,5.129c0.45,1.861,0.675,3.631,0.675,5.311c0,3-0.495,5.881-1.485,8.641c-0.989,2.76-2.461,5.58-4.409,8.459c-1.951,2.881-4.396,5.939-7.335,9.18c-2.94,3.24-6.361,6.871-10.261,10.891l-4.14,4.41v0.18h29.43v1.891H12.919z"/>
	<path fill="#aaa" d="M75.11,2459.555v-18H47.3v-1.35l29.431-39.15H77v38.609h9.181v1.891H77v18H75.11z M75.11,2439.664v-26.189c0-1.381,0-2.701,0-3.961s0.059-2.52,0.18-3.779l-0.27-0.09c-0.9,1.68-1.755,3.016-2.565,4.004c-0.81,0.99-1.545,1.967-2.205,2.926L50,2439.484v0.18H75.11z"/>
	<path fill="#aaa" d="M12.919,2559.555v-1.441l4.771-5.309c4.141-4.141,7.709-7.875,10.71-11.205c3-3.33,5.49-6.42,7.47-9.27c1.98-2.85,3.435-5.58,4.365-8.191c0.93-2.609,1.396-5.264,1.396-7.965c0-1.678-0.195-3.359-0.585-5.039c-0.392-1.68-1.096-3.195-2.115-4.545c-1.021-1.352-2.371-2.445-4.05-3.285c-1.681-0.84-3.841-1.26-6.48-1.26c-1.381,0-2.686,0.166-3.915,0.494c-1.23,0.33-2.355,0.752-3.375,1.26c-1.021,0.512-1.935,1.051-2.745,1.621c-0.81,0.57-1.484,1.125-2.024,1.664l-1.17-1.26c1.739-1.68,3.719-3.061,5.939-4.141c2.22-1.08,4.771-1.619,7.65-1.619s5.265,0.51,7.155,1.529c1.89,1.021,3.404,2.311,4.545,3.871c1.139,1.561,1.935,3.27,2.385,5.129c0.45,1.861,0.675,3.631,0.675,5.311c0,3-0.495,5.881-1.485,8.641c-0.989,2.76-2.461,5.58-4.409,8.459c-1.951,2.881-4.396,5.939-7.335,9.18c-2.94,3.24-6.361,6.871-10.261,10.891l-4.14,4.41v0.18h29.43v1.891H12.919z"/>
	<path fill="#aaa" d="M80.96,2502.943H59.54l-3.24,20.881c1.02-0.119,1.949-0.225,2.79-0.314c0.84-0.09,1.949-0.135,3.33-0.135c2.28,0,4.53,0.314,6.75,0.943c2.22,0.631,4.199,1.666,5.94,3.105c1.739,1.439,3.135,3.33,4.185,5.67s1.575,5.221,1.575,8.641c0,2.939-0.495,5.58-1.485,7.92c-0.989,2.34-2.295,4.32-3.914,5.939c-1.62,1.621-3.48,2.852-5.58,3.691c-2.102,0.838-4.291,1.26-6.57,1.26c-2.761,0-5.235-0.346-7.425-1.035c-2.191-0.689-3.825-1.455-4.905-2.295l0.72-2.07c1.261,0.961,2.895,1.77,4.905,2.43c2.01,0.66,4.215,0.99,6.615,0.99c2.279,0,4.379-0.42,6.3-1.26c1.92-0.84,3.585-1.994,4.995-3.465c1.409-1.471,2.504-3.24,3.285-5.311c0.778-2.07,1.17-4.305,1.17-6.705c0-4.859-1.381-8.834-4.141-11.926c-2.76-3.088-6.99-4.635-12.689-4.635c-1.741,0-3.285,0.09-4.635,0.271c-1.351,0.18-2.506,0.33-3.466,0.449l3.78-24.93h23.13V2502.943z"/>
</g>
<g>
	<path fill="#aaa" d="M112.919,59.554v-1.44l4.771-5.31c4.141-4.14,7.709-7.875,10.71-11.205c3-3.33,5.49-6.419,7.47-9.27c1.98-2.849,3.435-5.58,4.365-8.19c0.93-2.61,1.396-5.265,1.396-7.965c0-1.679-0.195-3.36-0.585-5.04c-0.392-1.679-1.096-3.195-2.115-4.545c-1.021-1.35-2.371-2.444-4.05-3.285c-1.681-0.839-3.841-1.26-6.48-1.26c-1.381,0-2.686,0.166-3.915,0.495c-1.23,0.331-2.355,0.751-3.375,1.26c-1.021,0.51-1.935,1.05-2.745,1.62c-0.81,0.571-1.484,1.125-2.024,1.665l-1.17-1.26c1.739-1.679,3.719-3.06,5.939-4.14c2.22-1.08,4.771-1.62,7.65-1.62s5.265,0.511,7.155,1.53c1.89,1.021,3.404,2.311,4.545,3.87c1.139,1.561,1.935,3.271,2.385,5.13c0.45,1.86,0.675,3.631,0.675,5.31c0,3.001-0.495,5.881-1.485,8.64c-0.989,2.76-2.461,5.58-4.409,8.46c-1.951,2.88-4.396,5.94-7.335,9.18c-2.94,3.24-6.361,6.871-10.261,10.89l-4.14,4.41v0.18h29.43v1.89H112.919z"/>
	<path fill="#aaa" d="M167.641,21.844c2.699,0,5.099,0.465,7.199,1.395c2.1,0.931,3.87,2.236,5.311,3.915c1.439,1.68,2.534,3.66,3.285,5.94c0.749,2.281,1.125,4.74,1.125,7.38c0,2.461-0.36,4.891-1.08,7.29c-0.721,2.4-1.786,4.545-3.195,6.435c-1.41,1.89-3.181,3.42-5.31,4.59c-2.131,1.17-4.605,1.755-7.426,1.755c-2.34,0-4.575-0.495-6.704-1.485c-2.131-0.99-4.006-2.504-5.625-4.545c-1.62-2.039-2.911-4.575-3.87-7.605c-0.961-3.029-1.44-6.555-1.44-10.575c0-5.4,0.689-10.274,2.07-14.625c1.379-4.349,3.344-8.069,5.895-11.16c2.55-3.09,5.64-5.535,9.271-7.335c3.629-1.8,7.725-2.849,12.285-3.15l0.09,1.89c-3.661,0.121-7.097,0.841-10.306,2.16c-3.21,1.32-6.029,3.21-8.46,5.67c-2.43,2.461-4.409,5.445-5.939,8.955c-1.53,3.51-2.476,7.515-2.835,12.015h0.18c1.319-2.34,3.285-4.41,5.896-6.21C160.665,22.744,163.86,21.844,167.641,21.844z M168,58.654c2.1,0,4.05-0.419,5.851-1.26c1.8-0.839,3.359-2.025,4.68-3.555c1.319-1.53,2.34-3.42,3.06-5.67c0.721-2.25,1.08-4.755,1.08-7.515c0-2.88-0.391-5.385-1.17-7.515c-0.78-2.129-1.86-3.884-3.24-5.265c-1.381-1.379-3-2.415-4.859-3.105c-1.86-0.689-3.841-1.035-5.94-1.035c-3.06,0-5.881,0.796-8.46,2.385c-2.58,1.59-4.65,3.825-6.21,6.705c-0.24,0.481-0.465,1.066-0.675,1.755c-0.211,0.69-0.315,1.336-0.315,1.935c0,3.3,0.36,6.315,1.08,9.045c0.721,2.731,1.77,5.071,3.15,7.02c1.38,1.951,3.06,3.451,5.04,4.5c1.979,1.051,4.26,1.575,6.84,1.575H168z"/>
	<path fill="#aaa" d="M112.919,159.554v-1.44l4.771-5.31c4.141-4.14,7.709-7.875,10.71-11.205c3-3.33,5.49-6.419,7.47-9.27c1.98-2.849,3.435-5.58,4.365-8.19c0.93-2.61,1.396-5.265,1.396-7.965c0-1.679-0.195-3.36-0.585-5.04c-0.392-1.679-1.096-3.195-2.115-4.545c-1.021-1.35-2.371-2.444-4.05-3.285c-1.681-0.839-3.841-1.26-6.48-1.26c-1.381,0-2.686,0.166-3.915,0.495c-1.23,0.331-2.355,0.751-3.375,1.26c-1.021,0.51-1.935,1.05-2.745,1.62c-0.81,0.571-1.484,1.125-2.024,1.665l-1.17-1.26c1.739-1.679,3.719-3.06,5.939-4.14c2.22-1.08,4.771-1.62,7.65-1.62s5.265,0.511,7.155,1.53c1.89,1.021,3.404,2.311,4.545,3.87c1.139,1.561,1.935,3.271,2.385,5.13c0.45,1.86,0.675,3.631,0.675,5.31c0,3.001-0.495,5.881-1.485,8.64c-0.989,2.76-2.461,5.58-4.409,8.46c-1.951,2.88-4.396,5.94-7.335,9.18c-2.94,3.24-6.361,6.871-10.261,10.89l-4.14,4.41v0.18h29.43v1.89H112.919z"/>
	<path fill="#aaa" d="M184.021,101.054v1.62l-26.37,56.88h-1.891l26.101-56.52v-0.18H152.34v-1.8H184.021z"/>
	<path fill="#aaa" d="M112.919,259.554v-1.44l4.771-5.31c4.141-4.14,7.709-7.875,10.71-11.205c3-3.33,5.49-6.419,7.47-9.27c1.98-2.849,3.435-5.58,4.365-8.19c0.93-2.61,1.396-5.265,1.396-7.965c0-1.679-0.195-3.36-0.585-5.04c-0.392-1.679-1.096-3.195-2.115-4.545c-1.021-1.35-2.371-2.444-4.05-3.285c-1.681-0.839-3.841-1.26-6.48-1.26c-1.381,0-2.686,0.166-3.915,0.495c-1.23,0.331-2.355,0.751-3.375,1.26c-1.021,0.51-1.935,1.05-2.745,1.62c-0.81,0.571-1.484,1.125-2.024,1.665l-1.17-1.26c1.739-1.679,3.719-3.06,5.939-4.14c2.22-1.08,4.771-1.62,7.65-1.62s5.265,0.511,7.155,1.53c1.89,1.021,3.404,2.311,4.545,3.87c1.139,1.561,1.935,3.271,2.385,5.13c0.45,1.86,0.675,3.631,0.675,5.31c0,3.001-0.495,5.881-1.485,8.64c-0.989,2.76-2.461,5.58-4.409,8.46c-1.951,2.88-4.396,5.94-7.335,9.18c-2.94,3.24-6.361,6.871-10.261,10.89l-4.14,4.41v0.18h29.43v1.89H112.919z"/>
	<path fill="#aaa" d="M168.044,200.064c2.153,0,4.097,0.375,5.832,1.125c1.733,0.751,3.214,1.755,4.44,3.015c1.227,1.26,2.153,2.715,2.781,4.365c0.628,1.651,0.942,3.375,0.942,5.175c0,1.26-0.166,2.551-0.496,3.87c-0.331,1.32-0.901,2.61-1.713,3.87c-0.812,1.26-1.895,2.461-3.247,3.6c-1.353,1.141-3.082,2.191-5.187,3.15v0.36c4.296,1.8,7.459,3.931,9.488,6.39c2.029,2.461,3.045,5.58,3.045,9.36c0,2.76-0.463,5.161-1.389,7.2c-0.925,2.04-2.178,3.721-3.759,5.04c-1.582,1.321-3.388,2.311-5.417,2.97s-4.117,0.99-6.266,0.99c-2.388,0-4.611-0.36-6.67-1.08c-2.059-0.72-3.835-1.755-5.327-3.105c-1.492-1.35-2.655-2.97-3.49-4.86c-0.835-1.89-1.253-3.974-1.253-6.255c0-4.14,1.118-7.589,3.356-10.35c2.239-2.759,5.268-4.919,9.087-6.48v-0.36c-3.577-1.56-6.14-3.51-7.688-5.85c-1.55-2.34-2.325-4.86-2.325-7.56c0-2.34,0.389-4.41,1.166-6.21c0.777-1.8,1.854-3.33,3.23-4.59c1.375-1.26,2.976-2.205,4.801-2.835c1.823-0.63,3.812-0.945,5.967-0.945H168.044z M167.056,258.564c4.665,0,8.358-1.229,11.081-3.69c2.723-2.459,4.084-5.76,4.084-9.9c0-4.5-1.377-7.965-4.128-10.395c-2.752-2.43-6.76-4.334-12.024-5.715c-4.486,1.381-7.912,3.48-10.274,6.3c-2.362,2.821-3.544,5.971-3.544,9.45c-0.061,1.86,0.224,3.645,0.853,5.355c0.627,1.71,1.569,3.195,2.826,4.455c1.256,1.26,2.812,2.265,4.666,3.015c1.854,0.751,3.979,1.125,6.372,1.125H167.056z M167.55,202.044c-2.04,0-3.855,0.315-5.444,0.945c-1.591,0.63-2.94,1.5-4.05,2.61c-1.111,1.111-1.951,2.385-2.521,3.825c-0.571,1.44-0.854,2.97-0.854,4.59c-0.061,3.901,1.17,6.93,3.689,9.09c2.521,2.16,5.88,3.721,10.08,4.68c3.42-1.319,6.224-3.074,8.415-5.265c2.189-2.189,3.285-5.085,3.285-8.685c0-1.44-0.226-2.864-0.675-4.275c-0.45-1.409-1.186-2.669-2.205-3.78c-1.021-1.11-2.311-2.01-3.87-2.7c-1.562-0.689-3.48-1.035-5.76-1.035H167.55z"/>
	<path fill="#aaa" d="M112.919,359.554v-1.44l4.771-5.31c4.141-4.14,7.709-7.875,10.71-11.205c3-3.33,5.49-6.419,7.47-9.27c1.98-2.849,3.435-5.58,4.365-8.19c0.93-2.61,1.396-5.265,1.396-7.965c0-1.679-0.195-3.36-0.585-5.04c-0.392-1.679-1.096-3.195-2.115-4.545c-1.021-1.35-2.371-2.444-4.05-3.285c-1.681-0.839-3.841-1.26-6.48-1.26c-1.381,0-2.686,0.166-3.915,0.495c-1.23,0.331-2.355,0.751-3.375,1.26c-1.021,0.51-1.935,1.05-2.745,1.62c-0.81,0.571-1.484,1.125-2.024,1.665l-1.17-1.26c1.739-1.679,3.719-3.06,5.939-4.14c2.22-1.08,4.771-1.62,7.65-1.62s5.265,0.511,7.155,1.53c1.89,1.021,3.404,2.311,4.545,3.87c1.139,1.561,1.935,3.271,2.385,5.13c0.45,1.86,0.675,3.631,0.675,5.31c0,3.001-0.495,5.881-1.485,8.64c-0.989,2.76-2.461,5.58-4.409,8.46c-1.951,2.88-4.396,5.94-7.335,9.18c-2.94,3.24-6.361,6.871-10.261,10.89l-4.14,4.41v0.18h29.43v1.89H112.919z"/>
	<path fill="#aaa" d="M155.49,358.654c0.239,0.061,0.39,0.076,0.45,0.045c0.059-0.03,0.239-0.045,0.54-0.045c2.938,0,5.864-0.509,8.774-1.53c2.91-1.02,5.58-2.685,8.011-4.995c2.43-2.309,4.5-5.295,6.21-8.955c1.71-3.659,2.835-8.13,3.375-13.41h-0.096c-1.926,2.88-4.212,4.965-6.858,6.255c-2.648,1.291-5.596,1.935-8.844,1.935c-2.707,0-5.068-0.509-7.084-1.53c-2.017-1.02-3.686-2.354-5.009-4.005c-1.323-1.65-2.301-3.524-2.932-5.625c-0.633-2.1-0.948-4.23-0.948-6.39c0-2.7,0.376-5.279,1.128-7.74c0.751-2.459,1.864-4.62,3.339-6.48c1.474-1.859,3.309-3.344,5.505-4.455c2.195-1.109,4.707-1.665,7.535-1.665c2.165,0,4.241,0.495,6.227,1.485c1.985,0.99,3.716,2.52,5.189,4.59s2.646,4.68,3.519,7.83c0.871,3.15,1.309,6.855,1.309,11.115c0,6.3-0.841,11.7-2.52,16.2c-1.681,4.5-3.856,8.176-6.525,11.025c-2.67,2.851-5.715,4.936-9.135,6.255c-3.42,1.319-6.93,1.98-10.53,1.98h-0.63V358.654z M167.687,302.044c-2.154,0-4.129,0.45-5.923,1.35c-1.795,0.9-3.336,2.16-4.621,3.78c-1.287,1.62-2.304,3.555-3.052,5.805s-1.12,4.725-1.12,7.425c0,2.461,0.358,4.65,1.075,6.57c0.718,1.921,1.704,3.555,2.962,4.905c1.256,1.35,2.736,2.371,4.44,3.06c1.705,0.691,3.575,1.035,5.609,1.035c3.409,0,6.43-0.794,9.062-2.385c2.632-1.589,4.666-3.645,6.103-6.165c0.179-0.3,0.344-0.644,0.492-1.035c0.149-0.39,0.226-0.794,0.226-1.215c-0.061-7.14-1.348-12.78-3.859-16.92c-2.513-4.14-6.281-6.21-11.306-6.21H167.687z"/>
	<path fill="#aaa" d="M116.069,455.144c1.02,0.781,2.596,1.545,4.725,2.295c2.131,0.751,4.576,1.125,7.336,1.125c3.18,0,5.789-0.509,7.83-1.53c2.039-1.02,3.629-2.295,4.77-3.825c1.139-1.53,1.92-3.164,2.34-4.905c0.42-1.74,0.631-3.33,0.631-4.77c-0.061-2.64-0.617-4.905-1.666-6.795s-2.43-3.434-4.139-4.635c-1.711-1.199-3.646-2.084-5.805-2.655c-2.16-0.569-4.381-0.855-6.66-0.855h-3.061v-1.89h3.33c1.738,0,3.539-0.239,5.4-0.72c1.857-0.479,3.539-1.245,5.039-2.295c1.5-1.049,2.73-2.399,3.689-4.05c0.959-1.649,1.441-3.645,1.441-5.985c0-1.56-0.211-3.029-0.631-4.41c-0.42-1.379-1.111-2.61-2.07-3.69s-2.189-1.935-3.689-2.565s-3.33-0.945-5.49-0.945s-4.186,0.405-6.074,1.215c-1.891,0.81-3.465,1.755-4.725,2.835l-0.9-1.89c1.139-0.959,2.729-1.89,4.77-2.79c2.039-0.9,4.32-1.35,6.84-1.35c2.58,0,4.754,0.391,6.525,1.17c1.77,0.78,3.195,1.8,4.275,3.06c1.08,1.26,1.857,2.686,2.34,4.275c0.479,1.59,0.719,3.195,0.719,4.815c0,3.24-0.84,6.09-2.52,8.55c-1.68,2.461-4.441,4.291-8.279,5.49v0.18c1.799,0.36,3.51,0.976,5.129,1.845c1.621,0.871,3.029,1.966,4.23,3.285c1.199,1.32,2.145,2.866,2.836,4.635c0.688,1.771,1.035,3.766,1.035,5.985c0,2.041-0.287,4.095-0.855,6.165c-0.572,2.07-1.561,3.915-2.971,5.535s-3.301,2.94-5.67,3.96c-2.371,1.02-5.326,1.53-8.865,1.53c-2.699,0-5.07-0.36-7.109-1.08c-2.041-0.72-3.6-1.47-4.68-2.25L116.069,455.144z"/>
	<path fill="#aaa" d="M167.279,460.544c-2.461,0-4.756-0.601-6.885-1.8c-2.131-1.2-3.96-3.06-5.49-5.58s-2.731-5.745-3.6-9.675c-0.871-3.929-1.306-8.625-1.306-14.085c0-5.34,0.45-9.869,1.351-13.59c0.899-3.719,2.114-6.75,3.645-9.09s3.359-4.035,5.49-5.085c2.129-1.049,4.395-1.575,6.795-1.575c2.46,0,4.739,0.526,6.84,1.575c2.1,1.05,3.915,2.745,5.445,5.085s2.745,5.371,3.645,9.09c0.9,3.721,1.351,8.25,1.351,13.59c0,5.46-0.437,10.156-1.306,14.085c-0.87,3.93-2.069,7.155-3.6,9.675s-3.361,4.38-5.49,5.58C172.034,459.944,169.739,460.544,167.279,460.544z M167.279,458.564c2.64,0,4.935-0.72,6.885-2.16c1.949-1.44,3.556-3.45,4.815-6.03c1.26-2.579,2.189-5.609,2.79-9.09c0.599-3.479,0.899-7.259,0.899-11.34c0-3.96-0.285-7.635-0.854-11.025c-0.571-3.389-1.471-6.345-2.7-8.865c-1.23-2.52-2.821-4.484-4.77-5.895c-1.951-1.409-4.307-2.115-7.065-2.115c-2.761,0-5.116,0.706-7.065,2.115c-1.95,1.411-3.541,3.375-4.77,5.895c-1.23,2.52-2.131,5.476-2.7,8.865c-0.571,3.39-0.854,7.065-0.854,11.025c0,4.081,0.299,7.861,0.899,11.34c0.6,3.48,1.53,6.511,2.79,9.09c1.26,2.581,2.864,4.59,4.815,6.03C162.344,457.844,164.639,458.564,167.279,458.564z"/>
	<path fill="#aaa" d="M121.47,555.144c1.02,0.78,2.595,1.546,4.725,2.295c2.13,0.751,4.575,1.125,7.336,1.125c3.179,0,5.789-0.509,7.829-1.529c2.039-1.02,3.63-2.296,4.771-3.825c1.139-1.53,1.92-3.164,2.34-4.905c0.419-1.739,0.63-3.33,0.63-4.77c-0.061-2.64-0.616-4.905-1.665-6.795c-1.05-1.89-2.43-3.434-4.14-4.635c-1.71-1.199-3.646-2.084-5.805-2.655c-2.16-0.569-4.381-0.855-6.66-0.855h-3.061v-1.89h3.33c1.739,0,3.54-0.239,5.4-0.72c1.858-0.479,3.539-1.245,5.04-2.295c1.499-1.049,2.729-2.399,3.689-4.05c0.959-1.649,1.44-3.645,1.44-5.985c0-1.56-0.211-3.029-0.63-4.41c-0.421-1.379-1.111-2.61-2.07-3.69c-0.96-1.08-2.19-1.935-3.689-2.565c-1.501-0.63-3.33-0.945-5.49-0.945s-4.186,0.405-6.075,1.215s-3.465,1.755-4.725,2.835l-0.9-1.89c1.139-0.959,2.729-1.89,4.77-2.79c2.039-0.9,4.32-1.35,6.841-1.35c2.579,0,4.754,0.391,6.524,1.17c1.77,0.78,3.195,1.8,4.275,3.06c1.08,1.26,1.858,2.686,2.34,4.275c0.479,1.59,0.72,3.195,0.72,4.815c0,3.24-0.841,6.09-2.52,8.55c-1.681,2.461-4.441,4.291-8.28,5.49v0.18c1.8,0.36,3.51,0.976,5.13,1.845c1.62,0.871,3.029,1.966,4.23,3.285c1.199,1.32,2.145,2.866,2.835,4.635c0.688,1.771,1.035,3.766,1.035,5.985c0,2.041-0.286,4.095-0.855,6.165c-0.571,2.07-1.561,3.915-2.97,5.535c-1.411,1.62-3.301,2.94-5.67,3.96c-2.371,1.02-5.326,1.53-8.865,1.53c-2.7,0-5.071-0.36-7.11-1.08c-2.04-0.72-3.6-1.47-4.68-2.25L121.47,555.144z"/>
	<path fill="#aaa" d="M167.55,503.394h-0.18l-9.18,5.76l-0.811-1.62l10.08-6.48h1.98v58.5h-1.891V503.394z"/>
	<path fill="#aaa" d="M117.87,655.144c1.02,0.78,2.594,1.546,4.725,2.295c2.129,0.751,4.574,1.125,7.336,1.125c3.178,0,5.789-0.509,7.828-1.529c2.039-1.02,3.631-2.296,4.771-3.825c1.139-1.53,1.92-3.164,2.34-4.905c0.418-1.739,0.629-3.33,0.629-4.77c-0.061-2.64-0.615-4.905-1.664-6.796c-1.051-1.89-2.43-3.434-4.141-4.635c-1.709-1.199-3.645-2.084-5.805-2.655c-2.16-0.569-4.381-0.854-6.66-0.854h-3.061v-1.89h3.33c1.74,0,3.541-0.239,5.4-0.721c1.859-0.479,3.539-1.244,5.041-2.295c1.498-1.049,2.729-2.398,3.689-4.05c0.959-1.649,1.439-3.645,1.439-5.985c0-1.56-0.211-3.028-0.629-4.409c-0.422-1.38-1.111-2.61-2.07-3.69c-0.961-1.08-2.191-1.935-3.689-2.565c-1.502-0.63-3.33-0.944-5.49-0.944s-4.186,0.404-6.076,1.215c-1.889,0.81-3.465,1.755-4.725,2.835l-0.9-1.89c1.139-0.959,2.73-1.891,4.77-2.79c2.039-0.9,4.32-1.351,6.842-1.351c2.578,0,4.754,0.392,6.523,1.17c1.77,0.781,3.195,1.801,4.275,3.061s1.859,2.686,2.34,4.274c0.48,1.591,0.721,3.195,0.721,4.815c0,3.24-0.842,6.091-2.52,8.55c-1.682,2.461-4.441,4.291-8.281,5.49v0.18c1.801,0.36,3.51,0.977,5.131,1.845c1.619,0.871,3.029,1.967,4.23,3.285c1.199,1.32,2.145,2.866,2.834,4.636c0.689,1.771,1.035,3.766,1.035,5.984c0,2.041-0.285,4.095-0.855,6.165s-1.561,3.915-2.969,5.535c-1.412,1.62-3.301,2.94-5.67,3.96c-2.371,1.02-5.326,1.53-8.865,1.53c-2.701,0-5.072-0.36-7.111-1.08s-3.6-1.47-4.68-2.25L117.87,655.144z"/>
	<path fill="#aaa" d="M150.81,659.554v-1.44l4.77-5.31c4.141-4.14,7.709-7.875,10.71-11.205c3-3.33,5.49-6.42,7.47-9.27c1.98-2.85,3.435-5.58,4.365-8.19c0.93-2.61,1.396-5.265,1.396-7.965c0-1.679-0.195-3.359-0.585-5.04c-0.392-1.679-1.096-3.195-2.115-4.545c-1.021-1.351-2.371-2.444-4.05-3.285c-1.681-0.84-3.841-1.26-6.48-1.26c-1.381,0-2.686,0.166-3.915,0.495c-1.23,0.33-2.355,0.751-3.375,1.26c-1.021,0.511-1.935,1.051-2.745,1.62c-0.81,0.57-1.484,1.125-2.024,1.665l-1.17-1.261c1.739-1.679,3.719-3.06,5.939-4.14c2.22-1.08,4.771-1.62,7.65-1.62s5.265,0.511,7.155,1.53c1.89,1.021,3.404,2.311,4.545,3.87c1.139,1.561,1.935,3.271,2.385,5.13c0.45,1.86,0.675,3.631,0.675,5.31c0,3.001-0.495,5.881-1.485,8.641c-0.989,2.76-2.461,5.58-4.409,8.46c-1.951,2.88-4.396,5.939-7.335,9.18c-2.94,3.24-6.361,6.871-10.261,10.89l-4.14,4.41v0.181h29.43v1.89H150.81z"/>
	<path fill="#aaa" d="M116.069,755.144c1.02,0.78,2.596,1.546,4.725,2.295c2.131,0.751,4.576,1.125,7.336,1.125c3.18,0,5.789-0.509,7.83-1.529c2.039-1.02,3.629-2.296,4.77-3.825c1.139-1.53,1.92-3.164,2.34-4.905c0.42-1.739,0.631-3.33,0.631-4.77c-0.061-2.64-0.617-4.905-1.666-6.796c-1.049-1.89-2.43-3.434-4.139-4.635c-1.711-1.199-3.646-2.084-5.805-2.655c-2.16-0.569-4.381-0.854-6.66-0.854h-3.061v-1.89h3.33c1.738,0,3.539-0.239,5.4-0.721c1.857-0.479,3.539-1.244,5.039-2.295c1.5-1.049,2.73-2.398,3.689-4.05c0.959-1.649,1.441-3.645,1.441-5.985c0-1.56-0.211-3.028-0.631-4.409c-0.42-1.38-1.111-2.61-2.07-3.69s-2.189-1.935-3.689-2.565c-1.5-0.63-3.33-0.944-5.49-0.944s-4.186,0.404-6.074,1.215c-1.891,0.81-3.465,1.755-4.725,2.835l-0.9-1.89c1.139-0.959,2.729-1.891,4.77-2.79c2.039-0.9,4.32-1.351,6.84-1.351c2.58,0,4.754,0.392,6.525,1.17c1.77,0.781,3.195,1.801,4.275,3.061s1.857,2.686,2.34,4.274c0.479,1.591,0.719,3.195,0.719,4.815c0,3.24-0.84,6.091-2.52,8.55c-1.68,2.461-4.441,4.291-8.279,5.49v0.18c1.799,0.36,3.51,0.977,5.129,1.845c1.621,0.871,3.029,1.967,4.23,3.285c1.199,1.32,2.145,2.866,2.836,4.636c0.688,1.771,1.035,3.766,1.035,5.984c0,2.041-0.287,4.095-0.855,6.165c-0.572,2.07-1.561,3.915-2.971,5.535s-3.301,2.94-5.67,3.96c-2.371,1.02-5.326,1.53-8.865,1.53c-2.699,0-5.07-0.36-7.109-1.08c-2.041-0.72-3.6-1.47-4.68-2.25L116.069,755.144z"/>
	<path fill="#aaa" d="M152.159,755.144c1.02,0.78,2.595,1.546,4.725,2.295c2.13,0.751,4.575,1.125,7.336,1.125c3.179,0,5.789-0.509,7.829-1.529c2.039-1.02,3.63-2.296,4.771-3.825c1.139-1.53,1.92-3.164,2.34-4.905c0.419-1.739,0.63-3.33,0.63-4.77c-0.061-2.64-0.616-4.905-1.665-6.796c-1.05-1.89-2.43-3.434-4.14-4.635c-1.71-1.199-3.646-2.084-5.805-2.655c-2.16-0.569-4.381-0.854-6.66-0.854h-3.061v-1.89h3.33c1.739,0,3.54-0.239,5.4-0.721c1.858-0.479,3.539-1.244,5.04-2.295c1.499-1.049,2.729-2.398,3.689-4.05c0.959-1.649,1.44-3.645,1.44-5.985c0-1.56-0.211-3.028-0.63-4.409c-0.421-1.38-1.111-2.61-2.07-3.69c-0.96-1.08-2.19-1.935-3.689-2.565c-1.501-0.63-3.33-0.944-5.49-0.944s-4.186,0.404-6.075,1.215c-1.89,0.81-3.465,1.755-4.725,2.835l-0.9-1.89c1.139-0.959,2.729-1.891,4.77-2.79c2.039-0.9,4.32-1.351,6.841-1.351c2.579,0,4.754,0.392,6.524,1.17c1.77,0.781,3.195,1.801,4.275,3.061s1.858,2.686,2.34,4.274c0.479,1.591,0.72,3.195,0.72,4.815c0,3.24-0.841,6.091-2.52,8.55c-1.681,2.461-4.441,4.291-8.28,5.49v0.18c1.8,0.36,3.51,0.977,5.13,1.845c1.62,0.871,3.029,1.967,4.23,3.285c1.199,1.32,2.145,2.866,2.835,4.636c0.688,1.771,1.035,3.766,1.035,5.984c0,2.041-0.286,4.095-0.855,6.165c-0.571,2.07-1.561,3.915-2.97,5.535c-1.411,1.62-3.301,2.94-5.67,3.96c-2.371,1.02-5.326,1.53-8.865,1.53c-2.7,0-5.071-0.36-7.11-1.08c-2.04-0.72-3.6-1.47-4.68-2.25L152.159,755.144z"/>
	<path fill="#aaa" d="M112.47,855.144c1.02,0.78,2.595,1.546,4.725,2.295c2.13,0.751,4.575,1.125,7.336,1.125c3.179,0,5.789-0.509,7.829-1.529c2.039-1.02,3.63-2.296,4.771-3.825c1.139-1.53,1.92-3.164,2.34-4.905c0.419-1.739,0.63-3.33,0.63-4.77c-0.061-2.64-0.616-4.905-1.665-6.796c-1.05-1.89-2.43-3.434-4.14-4.635c-1.71-1.199-3.646-2.084-5.805-2.655c-2.16-0.569-4.381-0.854-6.66-0.854h-3.061v-1.89h3.33c1.739,0,3.54-0.239,5.4-0.721c1.858-0.479,3.539-1.244,5.04-2.295c1.499-1.049,2.729-2.398,3.689-4.05c0.959-1.649,1.44-3.645,1.44-5.985c0-1.56-0.211-3.028-0.63-4.409c-0.421-1.38-1.111-2.61-2.07-3.69c-0.96-1.08-2.19-1.935-3.689-2.565c-1.501-0.63-3.33-0.944-5.49-0.944s-4.186,0.404-6.075,1.215c-1.89,0.81-3.465,1.755-4.725,2.835l-0.9-1.89c1.139-0.959,2.729-1.891,4.77-2.79c2.039-0.9,4.32-1.351,6.841-1.351c2.579,0,4.754,0.392,6.524,1.17c1.77,0.781,3.195,1.801,4.275,3.061s1.858,2.686,2.34,4.274c0.479,1.591,0.72,3.195,0.72,4.815c0,3.24-0.841,6.091-2.52,8.55c-1.681,2.461-4.441,4.291-8.28,5.49v0.18c1.8,0.36,3.51,0.977,5.13,1.845c1.62,0.871,3.029,1.967,4.23,3.285c1.199,1.32,2.145,2.866,2.835,4.636c0.688,1.771,1.035,3.766,1.035,5.984c0,2.041-0.286,4.095-0.855,6.165c-0.571,2.07-1.561,3.915-2.97,5.535c-1.411,1.62-3.301,2.94-5.67,3.96c-2.371,1.02-5.326,1.53-8.865,1.53c-2.7,0-5.071-0.36-7.11-1.08c-2.04-0.72-3.6-1.47-4.68-2.25L112.47,855.144z"/>
	<path fill="#aaa" d="M175.11,859.554v-18H147.3v-1.35l29.431-39.15H177v38.61h9.181v1.89H177v18H175.11z M175.11,839.665v-26.19c0-1.38,0-2.7,0-3.96s0.059-2.52,0.18-3.78l-0.27-0.09c-0.9,1.681-1.755,3.016-2.565,4.005c-0.81,0.99-1.545,1.966-2.205,2.925L150,839.484v0.181H175.11z"/>
	<path fill="#aaa" d="M116.069,955.144c1.02,0.78,2.596,1.546,4.725,2.295c2.131,0.751,4.576,1.125,7.336,1.125c3.18,0,5.789-0.509,7.83-1.529c2.039-1.02,3.629-2.296,4.77-3.825c1.139-1.53,1.92-3.164,2.34-4.905c0.42-1.739,0.631-3.33,0.631-4.77c-0.061-2.64-0.617-4.905-1.666-6.796c-1.049-1.89-2.43-3.434-4.139-4.635c-1.711-1.199-3.646-2.084-5.805-2.655c-2.16-0.569-4.381-0.854-6.66-0.854h-3.061v-1.89h3.33c1.738,0,3.539-0.239,5.4-0.721c1.857-0.479,3.539-1.244,5.039-2.295c1.5-1.049,2.73-2.398,3.689-4.05c0.959-1.649,1.441-3.645,1.441-5.985c0-1.56-0.211-3.028-0.631-4.409c-0.42-1.38-1.111-2.61-2.07-3.69s-2.189-1.935-3.689-2.565c-1.5-0.63-3.33-0.944-5.49-0.944s-4.186,0.404-6.074,1.215c-1.891,0.81-3.465,1.755-4.725,2.835l-0.9-1.89c1.139-0.959,2.729-1.891,4.77-2.79c2.039-0.9,4.32-1.351,6.84-1.351c2.58,0,4.754,0.392,6.525,1.17c1.77,0.781,3.195,1.801,4.275,3.061s1.857,2.686,2.34,4.274c0.479,1.591,0.719,3.195,0.719,4.815c0,3.24-0.84,6.091-2.52,8.55c-1.68,2.461-4.441,4.291-8.279,5.49v0.18c1.799,0.36,3.51,0.977,5.129,1.845c1.621,0.871,3.029,1.967,4.23,3.285c1.199,1.32,2.145,2.866,2.836,4.636c0.688,1.771,1.035,3.766,1.035,5.984c0,2.041-0.287,4.095-0.855,6.165c-0.572,2.07-1.561,3.915-2.971,5.535s-3.301,2.94-5.67,3.96c-2.371,1.02-5.326,1.53-8.865,1.53c-2.699,0-5.07-0.36-7.109-1.08c-2.041-0.72-3.6-1.47-4.68-2.25L116.069,955.144z"/>
	<path fill="#aaa" d="M180.959,902.944h-21.42l-3.24,20.88c1.02-0.119,1.949-0.225,2.79-0.314c0.84-0.09,1.949-0.135,3.33-0.135c2.28,0,4.53,0.314,6.75,0.944s4.199,1.665,5.94,3.105c1.739,1.439,3.135,3.33,4.185,5.67s1.575,5.22,1.575,8.64c0,2.94-0.495,5.58-1.485,7.92c-0.989,2.341-2.295,4.32-3.914,5.94c-1.62,1.62-3.48,2.851-5.58,3.69c-2.102,0.839-4.291,1.26-6.57,1.26c-2.761,0-5.235-0.346-7.425-1.035c-2.191-0.689-3.825-1.454-4.905-2.295l0.72-2.07c1.261,0.961,2.895,1.771,4.905,2.43c2.01,0.661,4.215,0.99,6.615,0.99c2.279,0,4.379-0.419,6.3-1.26c1.92-0.84,3.585-1.994,4.995-3.465c1.409-1.47,2.504-3.24,3.285-5.311c0.778-2.069,1.17-4.304,1.17-6.705c0-4.859-1.381-8.834-4.141-11.925c-2.76-3.089-6.99-4.635-12.689-4.635c-1.741,0-3.285,0.09-4.635,0.271c-1.351,0.18-2.506,0.33-3.466,0.449l3.78-24.93h23.13V902.944z"/>
	<path fill="#aaa" d="M114.27,1055.144c1.02,0.78,2.595,1.546,4.725,2.295c2.13,0.751,4.575,1.125,7.336,1.125c3.179,0,5.789-0.509,7.829-1.529c2.039-1.02,3.63-2.296,4.771-3.825c1.139-1.53,1.92-3.164,2.34-4.905c0.419-1.739,0.63-3.33,0.63-4.77c-0.061-2.64-0.616-4.905-1.665-6.796c-1.05-1.89-2.43-3.434-4.14-4.635c-1.71-1.199-3.646-2.084-5.805-2.655c-2.16-0.569-4.381-0.854-6.66-0.854h-3.061v-1.89h3.33c1.739,0,3.54-0.239,5.4-0.721c1.858-0.479,3.539-1.244,5.04-2.295c1.499-1.049,2.729-2.398,3.689-4.05c0.959-1.649,1.44-3.645,1.44-5.985c0-1.56-0.211-3.028-0.63-4.409c-0.421-1.38-1.111-2.61-2.07-3.69c-0.96-1.08-2.19-1.935-3.689-2.565c-1.501-0.63-3.33-0.944-5.49-0.944s-4.186,0.404-6.075,1.215c-1.89,0.81-3.465,1.755-4.725,2.835l-0.9-1.89c1.139-0.959,2.729-1.891,4.77-2.79c2.039-0.9,4.32-1.351,6.841-1.351c2.579,0,4.754,0.392,6.524,1.17c1.77,0.781,3.195,1.801,4.275,3.061s1.858,2.686,2.34,4.274c0.479,1.591,0.72,3.195,0.72,4.815c0,3.24-0.841,6.091-2.52,8.55c-1.681,2.461-4.441,4.291-8.28,5.49v0.18c1.8,0.36,3.51,0.977,5.13,1.845c1.62,0.871,3.029,1.967,4.23,3.285c1.199,1.32,2.145,2.866,2.835,4.636c0.688,1.771,1.035,3.766,1.035,5.984c0,2.041-0.286,4.095-0.855,6.165c-0.571,2.07-1.561,3.915-2.97,5.535c-1.411,1.62-3.301,2.94-5.67,3.96c-2.371,1.02-5.326,1.53-8.865,1.53c-2.7,0-5.071-0.36-7.11-1.08c-2.04-0.72-3.6-1.47-4.68-2.25L114.27,1055.144z"/>
	<path fill="#aaa" d="M167.641,1021.844c2.699,0,5.099,0.466,7.199,1.395c2.1,0.932,3.87,2.236,5.311,3.915c1.439,1.681,2.534,3.661,3.285,5.94c0.749,2.281,1.125,4.74,1.125,7.38c0,2.461-0.36,4.891-1.08,7.29c-0.721,2.4-1.786,4.545-3.195,6.435c-1.41,1.891-3.181,3.421-5.31,4.591c-2.131,1.17-4.605,1.755-7.426,1.755c-2.34,0-4.575-0.495-6.704-1.485c-2.131-0.99-4.006-2.505-5.625-4.545c-1.62-2.039-2.911-4.574-3.87-7.604c-0.961-3.029-1.44-6.555-1.44-10.575c0-5.4,0.689-10.274,2.07-14.625c1.379-4.35,3.344-8.069,5.895-11.16c2.55-3.09,5.64-5.535,9.271-7.335c3.629-1.8,7.725-2.85,12.285-3.15l0.09,1.891c-3.661,0.12-7.097,0.841-10.306,2.159c-3.21,1.321-6.029,3.211-8.46,5.671c-2.43,2.461-4.409,5.444-5.939,8.954c-1.53,3.511-2.476,7.516-2.835,12.016h0.18c1.319-2.34,3.285-4.41,5.896-6.21C160.665,1022.745,163.86,1021.844,167.641,1021.844z M168,1058.654c2.1,0,4.05-0.419,5.851-1.26c1.8-0.84,3.359-2.024,4.68-3.555c1.319-1.53,2.34-3.42,3.06-5.67c0.721-2.25,1.08-4.755,1.08-7.516c0-2.88-0.391-5.384-1.17-7.515c-0.78-2.129-1.86-3.884-3.24-5.265c-1.381-1.38-3-2.415-4.859-3.105c-1.86-0.688-3.841-1.035-5.94-1.035c-3.06,0-5.881,0.796-8.46,2.386c-2.58,1.59-4.65,3.824-6.21,6.704c-0.24,0.481-0.465,1.066-0.675,1.756c-0.211,0.69-0.315,1.336-0.315,1.935c0,3.301,0.36,6.315,1.08,9.045c0.721,2.731,1.77,5.071,3.15,7.021c1.38,1.95,3.06,3.45,5.04,4.5c1.979,1.05,4.26,1.574,6.84,1.574H168z"/>
	<path fill="#aaa" d="M116.069,1155.144c1.02,0.78,2.596,1.546,4.725,2.295c2.131,0.751,4.576,1.125,7.336,1.125c3.18,0,5.789-0.509,7.83-1.529c2.039-1.02,3.629-2.296,4.77-3.825c1.139-1.53,1.92-3.164,2.34-4.905c0.42-1.739,0.631-3.33,0.631-4.77c-0.061-2.64-0.617-4.905-1.666-6.796c-1.049-1.89-2.43-3.434-4.139-4.635c-1.711-1.199-3.646-2.084-5.805-2.655c-2.16-0.569-4.381-0.854-6.66-0.854h-3.061v-1.89h3.33c1.738,0,3.539-0.239,5.4-0.721c1.857-0.479,3.539-1.244,5.039-2.295c1.5-1.049,2.73-2.398,3.689-4.05c0.959-1.649,1.441-3.645,1.441-5.985c0-1.56-0.211-3.028-0.631-4.409c-0.42-1.38-1.111-2.61-2.07-3.69s-2.189-1.935-3.689-2.565c-1.5-0.63-3.33-0.944-5.49-0.944s-4.186,0.404-6.074,1.215c-1.891,0.81-3.465,1.755-4.725,2.835l-0.9-1.89c1.139-0.959,2.729-1.891,4.77-2.79c2.039-0.9,4.32-1.351,6.84-1.351c2.58,0,4.754,0.392,6.525,1.17c1.77,0.781,3.195,1.801,4.275,3.061s1.857,2.686,2.34,4.274c0.479,1.591,0.719,3.195,0.719,4.815c0,3.24-0.84,6.091-2.52,8.55c-1.68,2.461-4.441,4.291-8.279,5.49v0.18c1.799,0.36,3.51,0.977,5.129,1.845c1.621,0.871,3.029,1.967,4.23,3.285c1.199,1.32,2.145,2.866,2.836,4.636c0.688,1.771,1.035,3.766,1.035,5.984c0,2.041-0.287,4.095-0.855,6.165c-0.572,2.07-1.561,3.915-2.971,5.535s-3.301,2.94-5.67,3.96c-2.371,1.02-5.326,1.53-8.865,1.53c-2.699,0-5.07-0.36-7.109-1.08c-2.041-0.72-3.6-1.47-4.68-2.25L116.069,1155.144z"/>
	<path fill="#aaa" d="M184.02,1101.054v1.62l-26.37,56.88h-1.891l26.101-56.52v-0.181h-29.521v-1.8H184.02z"/>
	<path fill="#aaa" d="M115.17,1255.145c1.02,0.779,2.595,1.545,4.725,2.295s4.575,1.125,7.336,1.125c3.179,0,5.789-0.51,7.829-1.529c2.039-1.02,3.63-2.297,4.771-3.826c1.139-1.529,1.92-3.164,2.34-4.904c0.419-1.74,0.63-3.33,0.63-4.77c-0.061-2.641-0.616-4.906-1.665-6.797c-1.05-1.889-2.43-3.434-4.14-4.635c-1.71-1.199-3.646-2.084-5.805-2.654c-2.16-0.57-4.381-0.855-6.66-0.855h-3.061v-1.889h3.33c1.739,0,3.54-0.24,5.4-0.721c1.858-0.48,3.539-1.244,5.04-2.295c1.499-1.049,2.729-2.398,3.689-4.051c0.959-1.648,1.44-3.645,1.44-5.984c0-1.561-0.211-3.029-0.63-4.41c-0.421-1.379-1.111-2.609-2.07-3.689c-0.96-1.08-2.19-1.936-3.689-2.566c-1.501-0.629-3.33-0.943-5.49-0.943s-4.186,0.404-6.075,1.215c-1.89,0.809-3.465,1.754-4.725,2.834l-0.9-1.889c1.139-0.959,2.729-1.891,4.77-2.791c2.039-0.9,4.32-1.35,6.841-1.35c2.579,0,4.754,0.391,6.524,1.17c1.77,0.781,3.195,1.801,4.275,3.061s1.858,2.686,2.34,4.273c0.479,1.592,0.72,3.195,0.72,4.816c0,3.24-0.841,6.09-2.52,8.549c-1.681,2.461-4.441,4.291-8.28,5.49v0.18c1.8,0.361,3.51,0.977,5.13,1.846c1.62,0.871,3.029,1.967,4.23,3.285c1.199,1.32,2.145,2.865,2.835,4.635c0.688,1.771,1.035,3.766,1.035,5.984c0,2.041-0.286,4.096-0.855,6.166c-0.571,2.07-1.561,3.914-2.97,5.535c-1.411,1.619-3.301,2.939-5.67,3.959c-2.371,1.02-5.326,1.531-8.865,1.531c-2.7,0-5.071-0.361-7.11-1.08c-2.04-0.721-3.6-1.471-4.68-2.25L115.17,1255.145z"/>
	<path fill="#aaa" d="M168.044,1200.064c2.153,0,4.097,0.375,5.832,1.125c1.733,0.75,3.214,1.754,4.44,3.016c1.227,1.26,2.153,2.715,2.781,4.363c0.628,1.652,0.942,3.375,0.942,5.176c0,1.26-0.166,2.551-0.496,3.869c-0.331,1.322-0.901,2.611-1.713,3.871c-0.812,1.26-1.895,2.461-3.247,3.6c-1.353,1.141-3.082,2.191-5.187,3.15v0.359c4.296,1.801,7.459,3.932,9.488,6.391c2.029,2.461,3.045,5.58,3.045,9.359c0,2.762-0.463,5.162-1.389,7.201c-0.925,2.039-2.178,3.721-3.759,5.039c-1.582,1.32-3.388,2.311-5.417,2.971c-2.029,0.658-4.117,0.99-6.266,0.99c-2.388,0-4.611-0.361-6.67-1.08c-2.059-0.721-3.835-1.756-5.327-3.105s-2.655-2.971-3.49-4.859c-0.835-1.891-1.253-3.975-1.253-6.256c0-4.141,1.118-7.59,3.356-10.35c2.239-2.76,5.268-4.92,9.087-6.48v-0.359c-3.577-1.561-6.14-3.51-7.688-5.85c-1.55-2.342-2.325-4.861-2.325-7.561c0-2.34,0.389-4.41,1.166-6.211c0.777-1.799,1.854-3.33,3.23-4.59c1.375-1.26,2.976-2.205,4.801-2.834c1.823-0.631,3.812-0.945,5.967-0.945H168.044z M167.056,1258.564c4.665,0,8.358-1.229,11.081-3.689s4.084-5.762,4.084-9.9c0-4.5-1.377-7.965-4.128-10.395c-2.752-2.432-6.76-4.334-12.024-5.717c-4.486,1.383-7.912,3.48-10.274,6.301s-3.544,5.971-3.544,9.449c-0.061,1.861,0.224,3.646,0.853,5.355c0.627,1.711,1.569,3.195,2.826,4.455c1.256,1.26,2.812,2.266,4.666,3.016c1.854,0.75,3.979,1.125,6.372,1.125H167.056z M167.55,1202.045c-2.04,0-3.855,0.314-5.444,0.943c-1.591,0.631-2.94,1.502-4.05,2.611c-1.111,1.111-1.951,2.385-2.521,3.824c-0.571,1.439-0.854,2.971-0.854,4.59c-0.061,3.902,1.17,6.93,3.689,9.09c2.521,2.16,5.88,3.721,10.08,4.682c3.42-1.32,6.224-3.074,8.415-5.266c2.189-2.189,3.285-5.086,3.285-8.686c0-1.439-0.226-2.865-0.675-4.275c-0.45-1.408-1.186-2.668-2.205-3.779c-1.021-1.109-2.311-2.01-3.87-2.699c-1.562-0.689-3.48-1.035-5.76-1.035H167.55z"/>
	<path fill="#aaa" d="M116.069,1355.145c1.02,0.779,2.596,1.545,4.725,2.295c2.131,0.75,4.576,1.125,7.336,1.125c3.18,0,5.789-0.51,7.83-1.529c2.039-1.02,3.629-2.297,4.77-3.826c1.139-1.529,1.92-3.164,2.34-4.904s0.631-3.33,0.631-4.77c-0.061-2.641-0.617-4.906-1.666-6.797c-1.049-1.889-2.43-3.434-4.139-4.635c-1.711-1.199-3.646-2.084-5.805-2.654c-2.16-0.57-4.381-0.855-6.66-0.855h-3.061v-1.889h3.33c1.738,0,3.539-0.24,5.4-0.721c1.857-0.48,3.539-1.244,5.039-2.295c1.5-1.049,2.73-2.398,3.689-4.051c0.959-1.648,1.441-3.645,1.441-5.984c0-1.561-0.211-3.029-0.631-4.41c-0.42-1.379-1.111-2.609-2.07-3.689s-2.189-1.936-3.689-2.566c-1.5-0.629-3.33-0.943-5.49-0.943s-4.186,0.404-6.074,1.215c-1.891,0.809-3.465,1.754-4.725,2.834l-0.9-1.889c1.139-0.959,2.729-1.891,4.77-2.791c2.039-0.9,4.32-1.35,6.84-1.35c2.58,0,4.754,0.391,6.525,1.17c1.77,0.781,3.195,1.801,4.275,3.061s1.857,2.686,2.34,4.273c0.479,1.592,0.719,3.195,0.719,4.816c0,3.24-0.84,6.09-2.52,8.549c-1.68,2.461-4.441,4.291-8.279,5.49v0.18c1.799,0.361,3.51,0.977,5.129,1.846c1.621,0.871,3.029,1.967,4.23,3.285c1.199,1.32,2.145,2.865,2.836,4.635c0.688,1.771,1.035,3.766,1.035,5.984c0,2.041-0.287,4.096-0.855,6.166c-0.572,2.07-1.561,3.914-2.971,5.535c-1.41,1.619-3.301,2.939-5.67,3.959c-2.371,1.02-5.326,1.531-8.865,1.531c-2.699,0-5.07-0.361-7.109-1.08c-2.041-0.721-3.6-1.471-4.68-2.25L116.069,1355.145z"/>
	<path fill="#aaa" d="M155.489,1358.654c0.239,0.061,0.39,0.076,0.45,0.045c0.059-0.029,0.239-0.045,0.54-0.045c2.938,0,5.864-0.51,8.774-1.529s5.58-2.686,8.011-4.996c2.43-2.309,4.5-5.295,6.21-8.955c1.71-3.658,2.835-8.129,3.375-13.41h-0.096c-1.926,2.881-4.212,4.967-6.858,6.256c-2.648,1.291-5.596,1.936-8.844,1.936c-2.707,0-5.068-0.51-7.084-1.531c-2.017-1.02-3.686-2.354-5.009-4.004s-2.301-3.525-2.932-5.625c-0.633-2.1-0.948-4.23-0.948-6.391c0-2.699,0.376-5.279,1.128-7.74c0.751-2.459,1.864-4.619,3.339-6.48c1.474-1.859,3.309-3.344,5.505-4.455c2.195-1.109,4.707-1.664,7.535-1.664c2.165,0,4.241,0.494,6.227,1.484s3.716,2.52,5.189,4.59s2.646,4.68,3.519,7.83c0.871,3.15,1.309,6.855,1.309,11.115c0,6.301-0.841,11.701-2.52,16.201c-1.681,4.5-3.856,8.176-6.525,11.023c-2.67,2.852-5.715,4.938-9.135,6.256s-6.93,1.98-10.53,1.98h-0.63V1358.654z M167.686,1302.045c-2.154,0-4.129,0.449-5.923,1.35c-1.795,0.9-3.336,2.16-4.621,3.779c-1.287,1.621-2.304,3.555-3.052,5.805s-1.12,4.727-1.12,7.426c0,2.461,0.358,4.65,1.075,6.57c0.718,1.92,1.704,3.555,2.962,4.904c1.256,1.35,2.736,2.371,4.44,3.061c1.705,0.689,3.575,1.035,5.609,1.035c3.409,0,6.43-0.795,9.062-2.385c2.632-1.59,4.666-3.646,6.103-6.166c0.179-0.299,0.344-0.645,0.492-1.035c0.149-0.389,0.226-0.795,0.226-1.215c-0.061-7.139-1.348-12.779-3.859-16.92c-2.513-4.141-6.281-6.209-11.306-6.209H167.686z"/>
	<path fill="#aaa" d="M134.521,1459.555v-18H106.71v-1.35l29.43-39.15h0.27v38.609h9.182v1.891h-9.182v18H134.521z M134.521,1439.664v-26.189c0-1.381,0-2.701,0-3.961s0.059-2.52,0.18-3.779l-0.27-0.09c-0.9,1.68-1.756,3.016-2.566,4.004c-0.809,0.99-1.545,1.967-2.205,2.926l-20.249,26.91v0.18H134.521z"/>
	<path fill="#aaa" d="M167.279,1460.545c-2.461,0-4.756-0.602-6.885-1.801c-2.131-1.199-3.96-3.061-5.49-5.58s-2.731-5.744-3.6-9.676c-0.871-3.928-1.306-8.623-1.306-14.084c0-5.34,0.45-9.869,1.351-13.59c0.899-3.721,2.114-6.75,3.645-9.09s3.359-4.035,5.49-5.086c2.129-1.049,4.395-1.574,6.795-1.574c2.46,0,4.739,0.525,6.84,1.574c2.1,1.051,3.915,2.746,5.445,5.086s2.745,5.369,3.645,9.09c0.9,3.721,1.351,8.25,1.351,13.59c0,5.461-0.437,10.156-1.306,14.084c-0.87,3.932-2.069,7.156-3.6,9.676s-3.361,4.381-5.49,5.58C172.034,1459.943,169.739,1460.545,167.279,1460.545z M167.279,1458.564c2.64,0,4.935-0.721,6.885-2.16c1.949-1.439,3.556-3.449,4.815-6.029s2.189-5.609,2.79-9.09c0.599-3.48,0.899-7.26,0.899-11.342c0-3.959-0.285-7.633-0.854-11.023c-0.571-3.391-1.471-6.346-2.7-8.865c-1.23-2.52-2.821-4.484-4.77-5.895c-1.951-1.41-4.307-2.115-7.065-2.115c-2.761,0-5.116,0.705-7.065,2.115c-1.95,1.41-3.541,3.375-4.77,5.895c-1.23,2.52-2.131,5.475-2.7,8.865c-0.571,3.391-0.854,7.064-0.854,11.023c0,4.082,0.299,7.861,0.899,11.342c0.6,3.48,1.53,6.51,2.79,9.09s2.864,4.59,4.815,6.029C162.344,1457.844,164.639,1458.564,167.279,1458.564z"/>
	<path fill="#aaa" d="M139.021,1559.555v-18H111.21v-1.35l29.43-39.15h0.27v38.609h9.182v1.891h-9.182v18H139.021z M139.021,1539.664v-26.189c0-1.381,0-2.701,0-3.961s0.059-2.52,0.18-3.779l-0.27-0.09c-0.9,1.68-1.756,3.016-2.566,4.004c-0.809,0.99-1.545,1.967-2.205,2.926l-20.25,26.91v0.18H139.021z"/>
	<path fill="#aaa" d="M167.549,1503.395h-0.18l-9.18,5.76l-0.811-1.619l10.08-6.48h1.98v58.5h-1.891V1503.395z"/>
	<path fill="#aaa" d="M135.42,1659.555v-18h-27.811v-1.35l29.431-39.15h0.27v38.609h9.181v1.891h-9.181v18H135.42z M135.42,1639.664v-26.189c0-1.381,0-2.701,0-3.961s0.059-2.52,0.18-3.779l-0.27-0.09c-0.9,1.68-1.755,3.016-2.565,4.004c-0.81,0.99-1.545,1.967-2.205,2.926l-20.25,26.91v0.18H135.42z"/>
	<path fill="#aaa" d="M150.811,1659.555v-1.441l4.77-5.309c4.141-4.141,7.709-7.875,10.71-11.205c3-3.33,5.49-6.42,7.47-9.27c1.98-2.85,3.435-5.58,4.365-8.191c0.93-2.609,1.396-5.264,1.396-7.965c0-1.678-0.195-3.359-0.585-5.039c-0.392-1.68-1.096-3.195-2.115-4.545c-1.021-1.352-2.371-2.445-4.05-3.285c-1.681-0.84-3.841-1.26-6.48-1.26c-1.381,0-2.686,0.166-3.915,0.494c-1.23,0.33-2.355,0.752-3.375,1.26c-1.021,0.512-1.935,1.051-2.745,1.621c-0.81,0.57-1.484,1.125-2.024,1.664l-1.17-1.26c1.739-1.68,3.719-3.061,5.939-4.141c2.22-1.08,4.771-1.619,7.65-1.619s5.265,0.51,7.155,1.529c1.89,1.021,3.404,2.311,4.545,3.871c1.139,1.561,1.935,3.27,2.385,5.129c0.45,1.861,0.675,3.631,0.675,5.311c0,3-0.495,5.881-1.485,8.641c-0.989,2.76-2.461,5.58-4.409,8.459c-1.951,2.881-4.396,5.939-7.335,9.18c-2.94,3.24-6.361,6.871-10.261,10.891l-4.14,4.41v0.18h29.43v1.891H150.811z"/>
	<path fill="#aaa" d="M135.42,1759.555v-18h-27.811v-1.35l29.431-39.15h0.27v38.609h9.181v1.891h-9.181v18H135.42z M135.42,1739.664v-26.189c0-1.381,0-2.701,0-3.961s0.059-2.52,0.18-3.779l-0.27-0.09c-0.9,1.68-1.755,3.016-2.565,4.004c-0.81,0.99-1.545,1.967-2.205,2.926l-20.25,26.91v0.18H135.42z"/>
	<path fill="#aaa" d="M152.16,1755.145c1.02,0.779,2.595,1.545,4.725,2.295s4.575,1.125,7.336,1.125c3.179,0,5.789-0.51,7.829-1.529c2.039-1.02,3.63-2.297,4.771-3.826c1.139-1.529,1.92-3.164,2.34-4.904c0.419-1.74,0.63-3.33,0.63-4.77c-0.061-2.641-0.616-4.906-1.665-6.797c-1.05-1.889-2.43-3.434-4.14-4.635c-1.71-1.199-3.646-2.084-5.805-2.654c-2.16-0.57-4.381-0.855-6.66-0.855h-3.061v-1.889h3.33c1.739,0,3.54-0.24,5.4-0.721c1.858-0.48,3.539-1.244,5.04-2.295c1.499-1.049,2.729-2.398,3.689-4.051c0.959-1.648,1.44-3.645,1.44-5.984c0-1.561-0.211-3.029-0.63-4.41c-0.421-1.379-1.111-2.609-2.07-3.689c-0.96-1.08-2.19-1.936-3.689-2.566c-1.501-0.629-3.33-0.943-5.49-0.943s-4.186,0.404-6.075,1.215c-1.89,0.809-3.465,1.754-4.725,2.834l-0.9-1.889c1.139-0.959,2.729-1.891,4.77-2.791c2.039-0.9,4.32-1.35,6.841-1.35c2.579,0,4.754,0.391,6.524,1.17c1.77,0.781,3.195,1.801,4.275,3.061s1.858,2.686,2.34,4.273c0.479,1.592,0.72,3.195,0.72,4.816c0,3.24-0.841,6.09-2.52,8.549c-1.681,2.461-4.441,4.291-8.28,5.49v0.18c1.8,0.361,3.51,0.977,5.13,1.846c1.62,0.871,3.029,1.967,4.23,3.285c1.199,1.32,2.145,2.865,2.835,4.635c0.688,1.771,1.035,3.766,1.035,5.984c0,2.041-0.286,4.096-0.855,6.166c-0.571,2.07-1.561,3.914-2.97,5.535c-1.411,1.619-3.301,2.939-5.67,3.959c-2.371,1.02-5.326,1.531-8.865,1.531c-2.7,0-5.071-0.361-7.11-1.08c-2.04-0.721-3.6-1.471-4.68-2.25L152.16,1755.145z"/>
	<path fill="#aaa" d="M132.72,1859.555v-18h-27.81v-1.35l29.43-39.15h0.27v38.609h9.181v1.891h-9.181v18H132.72z M132.72,1839.664v-26.189c0-1.381,0-2.701,0-3.961s0.059-2.52,0.18-3.779l-0.27-0.09c-0.9,1.68-1.755,3.016-2.565,4.004c-0.81,0.99-1.545,1.967-2.205,2.926l-20.25,26.91v0.18H132.72z"/>
	<path fill="#aaa" d="M175.11,1859.555v-18H147.3v-1.35l29.431-39.15H177v38.609h9.181v1.891H177v18H175.11z M175.11,1839.664v-26.189c0-1.381,0-2.701,0-3.961s0.059-2.52,0.18-3.779l-0.27-0.09c-0.9,1.68-1.755,3.016-2.565,4.004c-0.81,0.99-1.545,1.967-2.205,2.926l-20.25,26.91v0.18H175.11z"/>
	<path fill="#aaa" d="M135.42,1959.555v-18h-27.811v-1.35l29.431-39.15h0.27v38.609h9.181v1.891h-9.181v18H135.42z M135.42,1939.664v-26.189c0-1.381,0-2.701,0-3.961s0.059-2.52,0.18-3.779l-0.27-0.09c-0.9,1.68-1.755,3.016-2.565,4.004c-0.81,0.99-1.545,1.967-2.205,2.926l-20.25,26.91v0.18H135.42z"/>
	<path fill="#aaa" d="M180.96,1902.943h-21.42l-3.24,20.881c1.02-0.119,1.949-0.225,2.79-0.314c0.84-0.09,1.949-0.135,3.33-0.135c2.28,0,4.53,0.314,6.75,0.943c2.22,0.631,4.199,1.666,5.94,3.105c1.739,1.439,3.135,3.33,4.185,5.67s1.575,5.221,1.575,8.641c0,2.939-0.495,5.58-1.485,7.92c-0.989,2.34-2.295,4.32-3.914,5.939c-1.62,1.621-3.48,2.852-5.58,3.691c-2.102,0.838-4.291,1.26-6.57,1.26c-2.761,0-5.235-0.346-7.425-1.035c-2.191-0.689-3.825-1.455-4.905-2.295l0.72-2.07c1.261,0.961,2.895,1.77,4.905,2.43c2.01,0.66,4.215,0.99,6.615,0.99c2.279,0,4.379-0.42,6.3-1.26c1.92-0.84,3.585-1.994,4.995-3.465c1.409-1.471,2.504-3.24,3.285-5.311c0.778-2.07,1.17-4.305,1.17-6.705c0-4.859-1.381-8.834-4.141-11.926c-2.76-3.088-6.99-4.635-12.689-4.635c-1.741,0-3.285,0.09-4.635,0.271c-1.351,0.18-2.506,0.33-3.466,0.449l3.78-24.93h23.13V1902.943z"/>
	<path fill="#aaa" d="M133.62,2059.555v-18h-27.81v-1.35l29.43-39.15h0.27v38.609h9.181v1.891h-9.181v18H133.62z M133.62,2039.664v-26.189c0-1.381,0-2.701,0-3.961s0.059-2.52,0.18-3.779l-0.27-0.09c-0.9,1.68-1.755,3.016-2.565,4.004c-0.81,0.99-1.545,1.967-2.205,2.926l-20.25,26.91v0.18H133.62z"/>
	<path fill="#aaa" d="M167.641,2021.844c2.699,0,5.099,0.467,7.199,1.395c2.1,0.932,3.87,2.236,5.311,3.916c1.439,1.68,2.534,3.66,3.285,5.939c0.749,2.281,1.125,4.74,1.125,7.381c0,2.461-0.36,4.891-1.08,7.289c-0.721,2.4-1.786,4.545-3.195,6.436c-1.41,1.891-3.181,3.42-5.31,4.59c-2.131,1.17-4.605,1.756-7.426,1.756c-2.34,0-4.575-0.496-6.704-1.486c-2.131-0.99-4.006-2.504-5.625-4.545c-1.62-2.039-2.911-4.574-3.87-7.604c-0.961-3.029-1.44-6.555-1.44-10.576c0-5.4,0.689-10.273,2.07-14.625c1.379-4.35,3.344-8.068,5.895-11.16c2.55-3.09,5.64-5.535,9.271-7.334c3.629-1.801,7.725-2.85,12.285-3.15l0.09,1.891c-3.661,0.119-7.097,0.84-10.306,2.158c-3.21,1.322-6.029,3.211-8.46,5.672c-2.43,2.461-4.409,5.443-5.939,8.953c-1.53,3.512-2.476,7.516-2.835,12.016h0.18c1.319-2.34,3.285-4.41,5.896-6.209C160.665,2022.744,163.86,2021.844,167.641,2021.844z M168,2058.654c2.1,0,4.05-0.42,5.851-1.26c1.8-0.84,3.359-2.025,4.68-3.555c1.319-1.531,2.34-3.42,3.06-5.67c0.721-2.25,1.08-4.756,1.08-7.516c0-2.881-0.391-5.385-1.17-7.516c-0.78-2.129-1.86-3.883-3.24-5.264c-1.381-1.381-3-2.416-4.859-3.105c-1.86-0.689-3.841-1.035-5.94-1.035c-3.06,0-5.881,0.795-8.46,2.385c-2.58,1.59-4.65,3.824-6.21,6.705c-0.24,0.48-0.465,1.066-0.675,1.756c-0.211,0.689-0.315,1.336-0.315,1.934c0,3.301,0.36,6.316,1.08,9.045c0.721,2.732,1.77,5.072,3.15,7.021c1.38,1.949,3.06,3.449,5.04,4.5c1.979,1.049,4.26,1.574,6.84,1.574H168z"/>
	<path fill="#aaa" d="M135.42,2159.555v-18h-27.811v-1.35l29.431-39.15h0.27v38.609h9.181v1.891h-9.181v18H135.42z M135.42,2139.664v-26.189c0-1.381,0-2.701,0-3.961s0.059-2.52,0.18-3.779l-0.27-0.09c-0.9,1.68-1.755,3.016-2.565,4.004c-0.81,0.99-1.545,1.967-2.205,2.926l-20.25,26.91v0.18H135.42z"/>
	<path fill="#aaa" d="M184.021,2101.055v1.619l-26.37,56.881h-1.891l26.101-56.52v-0.182H152.34v-1.799H184.021z"/>
	<path fill="#aaa" d="M135.42,2259.555v-18h-27.811v-1.35l29.431-39.15h0.27v38.609h9.181v1.891h-9.181v18H135.42z M135.42,2239.664v-26.189c0-1.381,0-2.701,0-3.961s0.059-2.52,0.18-3.779l-0.27-0.09c-0.9,1.68-1.755,3.016-2.565,4.004c-0.81,0.99-1.545,1.967-2.205,2.926l-20.25,26.91v0.18H135.42z"/>
	<path fill="#aaa" d="M168.044,2200.064c2.153,0,4.097,0.375,5.832,1.125c1.733,0.75,3.214,1.754,4.44,3.016c1.227,1.26,2.153,2.715,2.781,4.363c0.628,1.652,0.942,3.375,0.942,5.176c0,1.26-0.166,2.551-0.496,3.869c-0.331,1.322-0.901,2.611-1.713,3.871c-0.812,1.26-1.895,2.461-3.247,3.6c-1.353,1.141-3.082,2.191-5.187,3.15v0.359c4.296,1.801,7.459,3.932,9.488,6.391c2.029,2.461,3.045,5.58,3.045,9.359c0,2.762-0.463,5.162-1.389,7.201c-0.925,2.039-2.178,3.721-3.759,5.039c-1.582,1.32-3.388,2.311-5.417,2.971c-2.029,0.658-4.117,0.99-6.266,0.99c-2.388,0-4.611-0.361-6.67-1.08c-2.059-0.721-3.835-1.756-5.327-3.105s-2.655-2.971-3.49-4.859c-0.835-1.891-1.253-3.975-1.253-6.256c0-4.141,1.118-7.59,3.356-10.35c2.239-2.76,5.268-4.92,9.087-6.48v-0.359c-3.577-1.561-6.14-3.51-7.688-5.85c-1.55-2.342-2.325-4.861-2.325-7.561c0-2.34,0.389-4.41,1.166-6.211c0.777-1.799,1.854-3.33,3.23-4.59c1.375-1.26,2.976-2.205,4.801-2.834c1.823-0.631,3.812-0.945,5.967-0.945H168.044z M167.056,2258.564c4.665,0,8.358-1.229,11.081-3.689s4.084-5.762,4.084-9.9c0-4.5-1.377-7.965-4.128-10.395c-2.752-2.432-6.76-4.334-12.024-5.717c-4.486,1.383-7.912,3.48-10.274,6.301s-3.544,5.971-3.544,9.449c-0.061,1.861,0.224,3.646,0.853,5.355c0.627,1.711,1.569,3.195,2.826,4.455c1.256,1.26,2.812,2.266,4.666,3.016c1.854,0.75,3.979,1.125,6.372,1.125H167.056z M167.55,2202.045c-2.04,0-3.855,0.314-5.444,0.943c-1.591,0.631-2.94,1.502-4.05,2.611c-1.111,1.111-1.951,2.385-2.521,3.824c-0.571,1.439-0.854,2.971-0.854,4.59c-0.061,3.902,1.17,6.93,3.689,9.09c2.521,2.16,5.88,3.721,10.08,4.682c3.42-1.32,6.224-3.074,8.415-5.266c2.189-2.189,3.285-5.086,3.285-8.686c0-1.439-0.226-2.865-0.675-4.275c-0.45-1.408-1.186-2.668-2.205-3.779c-1.021-1.109-2.311-2.01-3.87-2.699c-1.562-0.689-3.48-1.035-5.76-1.035H167.55z"/>
	<path fill="#aaa" d="M135.42,2359.555v-18h-27.811v-1.35l29.431-39.15h0.27v38.609h9.181v1.891h-9.181v18H135.42z M135.42,2339.664v-26.189c0-1.381,0-2.701,0-3.961s0.059-2.52,0.18-3.779l-0.27-0.09c-0.9,1.68-1.755,3.016-2.565,4.004c-0.81,0.99-1.545,1.967-2.205,2.926l-20.25,26.91v0.18H135.42z"/>
	<path fill="#aaa" d="M155.49,2358.654c0.239,0.061,0.39,0.076,0.45,0.045c0.059-0.029,0.239-0.045,0.54-0.045c2.938,0,5.864-0.51,8.774-1.529s5.58-2.686,8.011-4.996c2.43-2.309,4.5-5.295,6.21-8.955c1.71-3.658,2.835-8.129,3.375-13.41h-0.096c-1.926,2.881-4.212,4.967-6.858,6.256c-2.648,1.291-5.596,1.936-8.844,1.936c-2.707,0-5.068-0.51-7.084-1.531c-2.017-1.02-3.686-2.354-5.009-4.004s-2.301-3.525-2.932-5.625c-0.633-2.1-0.948-4.23-0.948-6.391c0-2.699,0.376-5.279,1.128-7.74c0.751-2.459,1.864-4.619,3.339-6.48c1.474-1.859,3.309-3.344,5.505-4.455c2.195-1.109,4.707-1.664,7.535-1.664c2.165,0,4.241,0.494,6.227,1.484s3.716,2.52,5.189,4.59s2.646,4.68,3.519,7.83c0.871,3.15,1.309,6.855,1.309,11.115c0,6.301-0.841,11.701-2.52,16.201c-1.681,4.5-3.856,8.176-6.525,11.023c-2.67,2.852-5.715,4.938-9.135,6.256s-6.93,1.98-10.53,1.98h-0.63V2358.654z M167.687,2302.045c-2.154,0-4.129,0.449-5.923,1.35c-1.795,0.9-3.336,2.16-4.621,3.779c-1.287,1.621-2.304,3.555-3.052,5.805s-1.12,4.727-1.12,7.426c0,2.461,0.358,4.65,1.075,6.57c0.718,1.92,1.704,3.555,2.962,4.904c1.256,1.35,2.736,2.371,4.44,3.061c1.705,0.689,3.575,1.035,5.609,1.035c3.409,0,6.43-0.795,9.062-2.385c2.632-1.59,4.666-3.646,6.103-6.166c0.179-0.299,0.344-0.645,0.492-1.035c0.149-0.389,0.226-0.795,0.226-1.215c-0.061-7.139-1.348-12.779-3.859-16.92c-2.513-4.141-6.281-6.209-11.306-6.209H167.687z"/>
	<path fill="#aaa" d="M143.97,2402.943h-21.42l-3.24,20.881c1.02-0.119,1.949-0.225,2.79-0.314c0.84-0.09,1.949-0.135,3.33-0.135c2.28,0,4.53,0.314,6.75,0.943c2.22,0.631,4.199,1.666,5.94,3.105c1.739,1.439,3.135,3.33,4.185,5.67s1.575,5.221,1.575,8.641c0,2.939-0.495,5.58-1.485,7.92c-0.989,2.34-2.295,4.32-3.914,5.939c-1.62,1.621-3.48,2.852-5.58,3.691c-2.102,0.838-4.291,1.26-6.57,1.26c-2.761,0-5.235-0.346-7.425-1.035c-2.191-0.689-3.825-1.455-4.905-2.295l0.72-2.07c1.261,0.961,2.895,1.77,4.905,2.43c2.01,0.66,4.215,0.99,6.615,0.99c2.279,0,4.379-0.42,6.3-1.26c1.92-0.84,3.585-1.994,4.995-3.465c1.409-1.471,2.504-3.24,3.285-5.311c0.778-2.07,1.17-4.305,1.17-6.705c0-4.859-1.381-8.834-4.141-11.926c-2.76-3.088-6.99-4.635-12.689-4.635c-1.741,0-3.285,0.09-4.635,0.271c-1.351,0.18-2.506,0.33-3.466,0.449l3.78-24.93h23.13V2402.943z"/>
	<path fill="#aaa" d="M167.28,2460.545c-2.461,0-4.756-0.602-6.885-1.801c-2.131-1.199-3.96-3.061-5.49-5.58s-2.731-5.744-3.6-9.676c-0.871-3.928-1.306-8.623-1.306-14.084c0-5.34,0.45-9.869,1.351-13.59c0.899-3.721,2.114-6.75,3.645-9.09s3.359-4.035,5.49-5.086c2.129-1.049,4.395-1.574,6.795-1.574c2.46,0,4.739,0.525,6.84,1.574c2.1,1.051,3.915,2.746,5.445,5.086s2.745,5.369,3.645,9.09c0.9,3.721,1.351,8.25,1.351,13.59c0,5.461-0.437,10.156-1.306,14.084c-0.87,3.932-2.069,7.156-3.6,9.676s-3.361,4.381-5.49,5.58C172.035,2459.943,169.74,2460.545,167.28,2460.545z M167.28,2458.564c2.64,0,4.935-0.721,6.885-2.16c1.949-1.439,3.556-3.449,4.815-6.029s2.189-5.609,2.79-9.09c0.599-3.48,0.899-7.26,0.899-11.342c0-3.959-0.285-7.633-0.854-11.023c-0.571-3.391-1.471-6.346-2.7-8.865c-1.23-2.52-2.821-4.484-4.77-5.895c-1.951-1.41-4.307-2.115-7.065-2.115c-2.761,0-5.116,0.705-7.065,2.115c-1.95,1.41-3.541,3.375-4.77,5.895c-1.23,2.52-2.131,5.475-2.7,8.865c-0.571,3.391-0.854,7.064-0.854,11.023c0,4.082,0.299,7.861,0.899,11.342c0.6,3.48,1.53,6.51,2.79,9.09s2.864,4.59,4.815,6.029C162.345,2457.844,164.64,2458.564,167.28,2458.564z"/>
</g>
</svg>
